<svg xmlns="http://www.w3.org/2000/svg" xmlns:xlink="http://www.w3.org/1999/xlink" viewBox="0 0 522 390"><defs><style>.cls-1,.cls-12,.cls-17,.cls-27,.cls-35,.cls-37,.cls-38,.cls-42,.cls-44,.cls-46,.cls-8{fill:none;}.cls-2{fill:#eba36c;}.cls-3{isolation:isolate;}.cls-4{fill:#fb5b20;}.cls-5{fill:#fc5a20;}.cls-6{fill:#ffcdab;}.cls-7{fill:#5d428c;}.cls-38,.cls-8{stroke:#743000;}.cls-12,.cls-17,.cls-27,.cls-35,.cls-37,.cls-38,.cls-42,.cls-44,.cls-46,.cls-8{stroke-linecap:round;}.cls-12,.cls-17,.cls-27,.cls-35,.cls-37,.cls-38,.cls-44,.cls-46,.cls-8{stroke-linejoin:round;}.cls-12,.cls-17,.cls-27,.cls-8{stroke-width:0.51px;}.cls-9{clip-path:url(#clip-path);}.cls-10{fill:#0a0a0a;opacity:0.2;}.cls-11{fill:#743000;}.cls-12,.cls-37{stroke:#432f64;}.cls-13{clip-path:url(#clip-path-2);}.cls-14{fill:#432f64;}.cls-15{clip-path:url(#clip-path-3);}.cls-16{fill:#c24822;}.cls-17,.cls-35,.cls-42{stroke:#5d428c;}.cls-18{fill:#3a164c;}.cls-19{clip-path:url(#clip-path-4);}.cls-20{fill:#b99ee8;}.cls-21{clip-path:url(#clip-path-5);}.cls-22{fill:#99391b;}.cls-23{fill:#0f66ab;}.cls-24{fill:#c9a287;}.cls-25{clip-path:url(#clip-path-6);}.cls-26{fill:#85390e;}.cls-27{stroke:#b77849;}.cls-28{clip-path:url(#clip-path-7);}.cls-29{fill:#ea2828;}.cls-30{fill:#fff;}.cls-31{fill:#282726;}.cls-32{fill:#9267dc;}.cls-33{clip-path:url(#clip-path-8);}.cls-34{clip-path:url(#clip-path-9);}.cls-35{stroke-width:0.28px;}.cls-36{clip-path:url(#clip-path-10);}.cls-37,.cls-38,.cls-44,.cls-46{stroke-width:0.5px;}.cls-39{clip-path:url(#clip-path-11);}.cls-40,.cls-48{opacity:0.15;}.cls-41{fill:#4f4e4d;}.cls-42{stroke-miterlimit:10;stroke-width:0.33px;}.cls-43{fill:#b37c51;}.cls-44{stroke:#4f4e4d;}.cls-45{fill:#cdb9ef;}.cls-46{stroke:#b99ee8;}.cls-47{clip-path:url(#clip-path-12);}.cls-48{mix-blend-mode:multiply;}</style><clipPath id="clip-path"><path class="cls-1" d="M86.25,204.93l-1.42-20.64s-1.42,0-3.49.14l-2.53-9.9,1-12.65-6.43-34.4-.2-1.25a9.59,9.59,0,0,0,3.3-3.84,9.14,9.14,0,0,1,1.28-2.18,12.61,12.61,0,0,1,2.46-2.58s-1.32-1.07-4.34.18l-1.16.66a1.77,1.77,0,0,1-2.54-.93c-1.42-3.9-4.72-12.23-7.42-13.23-1.92-.71-1.93.49-1.54,1.73-.65.31-1.23,1.07-1.1,2.84.3,3.77,2.84,18.52,2.84,18.52s.33,6.56.57,11.09l.48,23s1.89,12.19,3.45,24.16c-.46.08-.89.18-1.28.27l3.7,23.31L73,209c2.78,6.3,7.87,7.59,11.21,7C87.18,215.47,86.83,209.15,86.25,204.93Z"/></clipPath><clipPath id="clip-path-2"><polygon class="cls-1" points="274.65 261.34 263.41 261.34 254.42 221.37 265.66 221.37 274.65 261.34"/></clipPath><clipPath id="clip-path-3"><polygon class="cls-1" points="202.43 261.34 191.19 261.34 182.2 221.37 193.44 221.37 202.43 261.34"/></clipPath><clipPath id="clip-path-4"><path class="cls-1" d="M131.57,272.67l-28-8.23L66.8,274.67,77,287.37l28.89,7s-2.15,8-.46,22.76c1.73,15.09,3.1,33.26,3.1,33.26,4.3,1.08,10.75.44,12.71,0l.07.44c6.51,1.65,14.75,0,14.75,0L140,297.39Z"/></clipPath><clipPath id="clip-path-5"><path class="cls-1" d="M157.23,184.41s-3.38,8.44-1.69,14.85c.72,2.74,5.66,4,9.79,5.06,0,0-21.6,13.84-40.16,3.38,0,0,12.15-3.71,18.9-19.57"/></clipPath><clipPath id="clip-path-6"><path class="cls-1" d="M225.06,247.86c-6.08,1.35.69,5.95-11.79,3.58s-14.2-7.63-22.3-8.31c0,0-15.86-32.39-20.58-34.76s-11.14,14.85-6.41,21.26,21.6,24.64,21.6,24.64,4.81,3.83,19.1,5.27h21.81a4.47,4.47,0,0,0,1.32-1,41,41,0,0,0,3-3.92c2-3,8.77-1.69,9.78-3.38S231.13,246.51,225.06,247.86Z"/></clipPath><clipPath id="clip-path-7"><path class="cls-1" d="M275.72,15.08c-112.19,0-203.15,7.29-203.15,16.29v35.1c0-9,91-16.3,203.15-16.3s203.16,7.3,203.16,16.3V31.37C478.88,22.37,387.92,15.08,275.72,15.08Z"/></clipPath><clipPath id="clip-path-8"><path class="cls-1" d="M136.31,297.63v12.91c16,3.63,32.64,0,32.64,0V297.63Z"/></clipPath><clipPath id="clip-path-9"><path class="cls-1" d="M211.56,364.62s-6.58-4.82-9.62-9.83S203.12,339,203.12,339L181,337.45l2.7,18.89-.68,8.28ZM191,339.82l1.1.42s.68,8.52.51,10.21-.85,5.48-.85,5.48a12.43,12.43,0,0,1-.67-1.94C190.3,351.71,191,339.82,191,339.82Z"/></clipPath><clipPath id="clip-path-10"><path class="cls-1" d="M45,126.18c-22,12.95-41.25,36.25-37.5,95C17.67,381,241.2,422.4,354.93,316.16s215-262.47,126.24-267.47S229.85,188.91,135,139.93C96.21,119.93,66.21,113.68,45,126.18Z"/></clipPath><clipPath id="clip-path-11"><path class="cls-2" d="M378.08,138s1.78,14.48-.91,18-9.47,7.34-9.85,9c5.24,9.2,26.88,8,30.71,3.24a23.64,23.64,0,0,0-7.16-12.46c-3.25-3.08-2.17-17.42-2.17-17.42Z"/></clipPath><clipPath id="clip-path-12"><path class="cls-1" d="M437,177.77l-1.78-7.28s-10.28,3.31-11.29,3.62a20.78,20.78,0,0,0-4.31,2.09c-4.05-1.17-13.34-13-13.34-13a88.56,88.56,0,0,0-11.9-4.08l-3.16-3.11-.54.36c0,.16.26.89.26,1,0,3.81-2.48,7.87-6.2,7.87s-8.58-4.52-8.58-8.32q0-.34,0-.69l-.8-.47-3.89,3.32s-1.55.49-3.5,1.15a124.17,124.17,0,0,1-14.63,1.57,34.15,34.15,0,0,0-4.5-2.31c-.87-.18-9.77-3-9.77-3s1.83,6.18-2.53,7.75c0,0,14.29,7.84,14.81,7.84.32,0,6.51,1.26,11.25,2.23,1.56,7.66,3.53,16.62,4.1,17.94,1,2.26,1.86,25.27,1.86,25.27s24,2.1,30.35-1l1.4-24.62s1.26-5.71,2.65-12.28l16,6.37Z"/></clipPath></defs><title>Adaptaciones web</title><g class="cls-3"><g id="Layer_1" data-name="Layer 1"><circle class="cls-4" cx="473.37" cy="327.95" r="20.31"/><circle class="cls-4" cx="463.22" cy="263.98" r="10.15"/><circle class="cls-4" cx="38.28" cy="50.25" r="17.77"/><path class="cls-5" d="M45,126.18c-22,12.95-41.25,36.25-37.5,95C17.67,381,241.2,422.4,354.93,316.16s215-262.47,126.24-267.47S229.85,188.91,135,139.93C96.21,119.93,66.21,113.68,45,126.18Z"/><path class="cls-6" d="M73,125.36l6.83,36.52-1,12.65,6.79,26.64s3.09,14-1.35,14.84-12-1.71-13.07-14.91S66,161.45,66,161.45l-.81-38.59"/><path class="cls-7" d="M84.83,184.29s-11.39.27-16.68,1.59l3.7,23.31,14.57-1.86Z"/><path class="cls-6" d="M76.45,122.39a8.69,8.69,0,0,1,1.29-2.11,13.3,13.3,0,0,1,2.45-2.65s-1.32-1.07-4.34.18l-1.16.66a1.77,1.77,0,0,1-2.54-.93c-1.42-3.9-4.72-12.23-7.42-13.23-1.92-.71-1.93.49-1.54,1.73-.65.31-1.23,1.07-1.1,2.84.3,3.77,2.84,18.52,2.84,18.52s.58,11.77.77,14.67l9.9-.5-2.45-15.34A9.59,9.59,0,0,0,76.45,122.39Z"/><path class="cls-8" d="M63.3,106.34a65.57,65.57,0,0,1,3.09,8"/><g class="cls-9"><path class="cls-10" d="M77.42,206.18s-10.8-37.63-10-78c.17-8.15-4.13-15.46-6.13-23.36a166.89,166.89,0,0,0,.27,32.31c2,18.76,1.3,38,5.94,56.24a26.49,26.49,0,0,0,3.65,9.06C73.09,205.14,74.14,206.26,77.42,206.18Z"/></g><path class="cls-11" d="M100.88,266.08l9.57,86.77c.29,2.6-1.25,4.77-3.37,4.77h-2.15c-1.84,0-3.54-1.65-4-3.88L84.58,271.07Z"/><path class="cls-10" d="M100.88,266.08l9.57,86.77c.29,2.6-1.25,4.77-3.37,4.77h-2.15c-1.84,0-3.54-1.65-4-3.88L84.58,271.07Z"/><path class="cls-7" d="M143.68,357.48c-1.64-1.18-3.46-2.11-5.15-3.23a12.81,12.81,0,0,1-4.47-4.49c-7.91,1.08-15.29-3.19-23.18-2.85l-1.43,5.78a21.53,21.53,0,0,0-.63,4c-.14,2.74.26,5.32,1.06,6.08,1.07,1,10.89.4,10.89.4,5.71.44,11.48.57,17.21.5a56.25,56.25,0,0,0,7.89-.45c.56-.09,1.86-.16,2-.76s-1.18-2.2-1.62-2.7a13.51,13.51,0,0,0-2.26-2.08Z"/><path class="cls-12" d="M122.25,349.45c-1.64,3.41-4.59,10.07-1.44,13.35"/><g class="cls-13"><polygon class="cls-14" points="274.65 261.34 263.41 261.34 254.42 221.37 265.66 221.37 274.65 261.34"/><rect class="cls-10" x="250.61" y="239.3" width="28.44" height="17.71" transform="translate(462.67 -56.11) rotate(79.89)"/></g><g class="cls-15"><polygon class="cls-14" points="202.43 261.34 191.19 261.34 182.2 221.37 193.44 221.37 202.43 261.34"/><rect class="cls-10" x="182.77" y="243.44" width="21.51" height="16.73" transform="translate(387.05 503.61) rotate(-180)"/></g><path class="cls-16" d="M211.56,364.62s-6.58-4.82-9.62-9.83S203.12,339,203.12,339L181,337.45l2.7,18.89-.68,8.28ZM191,339.82l1.1.42s.68,8.52.51,10.21-.85,5.48-.85,5.48a12.43,12.43,0,0,1-.67-1.94C190.3,351.71,191,339.82,191,339.82Z"/><path class="cls-14" d="M224,259.92h20.84s-2.09-7.86-8.6-9S224,259.92,224,259.92Z"/><path class="cls-17" d="M238.14,259.84s-.93-6.16-5.24-7.93"/><path class="cls-11" d="M280.07,265.74l9.58,86.77c.29,2.6-1.25,4.78-3.38,4.78h-2.14c-1.85,0-3.54-1.65-4-3.89l-16.38-82.67Z"/><path class="cls-10" d="M280.07,265.74l9.58,86.77c.29,2.6-1.25,4.78-3.38,4.78h-2.14c-1.85,0-3.54-1.65-4-3.89L263.51,270Z"/><path class="cls-18" d="M131.57,272.67l-28-8.23L66.8,274.67,77,287.37l28.89,7s-2.15,8-.46,22.76c1.73,15.09,3.1,33.26,3.1,33.26,4.3,1.08,10.75.44,12.71,0l0,.46c6.51,1.64,14.78,0,14.78,0L140,297.39Z"/><path class="cls-11" d="M302.47,259.58H83.8s36.14,17.05,103.48,16.48C224.4,275.75,265.66,275.11,302.47,259.58Z"/><path class="cls-11" d="M247.52,267.77l10.67,96.71c.32,2.9-1.39,5.32-3.76,5.32H252c-2.06,0-3.95-1.84-4.44-4.33l-18.25-92.15Z"/><path class="cls-11" d="M49.65,267.77,39,364.48c-.32,2.9,1.4,5.32,3.77,5.32h2.39c2.06,0,3.94-1.84,4.44-4.33l18.24-92.15Z"/><g class="cls-19"><path class="cls-10" d="M105.93,290.88s-4.62,2.32-.48,36.83c.76,6.31,1.7,14,3,22.65l-1.08,1.12-.36,3.38.55,4.79c0,3.16,2.6,3.67,3.82,3.66l9.72-.1s-2.89-1.33-.86-8.42l1.28-3.84s-.23,0-.34-.61c-.06-.42,0-1.14-.1-2.26s-.55-9.69-.93-19.91c-.56-15.23-.49-34.26,5.06-38.8l1.27,1.51L112,293.41"/></g><path class="cls-17" d="M122,295.27S119.5,301,120,316.62s1.17,33.49,1.17,33.49"/><polygon class="cls-14" points="272.97 244.67 174.08 244.67 192.94 168.55 291.82 168.55 272.97 244.67"/><polygon class="cls-20" points="267.92 239.95 180.43 239.95 197.22 173.28 284.71 173.28 267.92 239.95"/><path class="cls-7" d="M165.92,264l5.06,8.86s24.38,1.94,41.09,10.8c0,0,4.8,2,3,8.35-1.47,5.26-11.22,47.41-11.22,47.41l-23.28-.33s-.5-5.59-1.44-13c-1.1-8.77-2.47-20.35-.6-25.93l-30.11-3.26-4-21.26-1.51-15.18Z"/><path class="cls-18" d="M170.05,266.76s-3.71-25.31-.67-37.8,3.24-18,3.24-18A13.13,13.13,0,0,0,162,203.61l-18.6,7.46,1.52,57.2Z"/><path class="cls-18" d="M163,206l1.9-1.42.65-.41a9.22,9.22,0,0,1,1.71.71,13.61,13.61,0,0,1,5.41,5.36l-2.15,2.37"/><path class="cls-16" d="M157.23,184.41s-3.38,8.44-1.69,14.85c.72,2.74,5.66,4,9.79,5.06,0,0-21.6,13.84-40.16,3.38,0,0,12.15-3.71,18.9-19.57"/><g class="cls-21"><path class="cls-10" d="M163,203.65s-11.6-.51-14-4.68-.55-9.24-.55-9.24l9.79,2Z"/></g><path class="cls-16" d="M153.56,191.46s14.19-.92,17.6-1.21,5.18-15.7,4.74-22.22-8.51-12-15.47-10.19-4.67,5.45-4.67,5.45Z"/><path class="cls-22" d="M175.85,172s3.75,7,3.06,7.8-3.83.42-3.83.42S175.45,176,175.85,172Z"/><path class="cls-23" d="M162.88,154.63c-32-7.54-44.8,28.1-44.8,28.1,19.24,14.17,49,7.84,49,7.84-1.27-6.33-4.56-17.71-4.56-17.71,9.87-3.38,11.81-9.62,11.81-9.62A16.81,16.81,0,0,0,162.88,154.63Z"/><path class="cls-22" d="M163.31,177.47s.89-.66.3-2.74-3-3.89-4.45-3.29-1.26,3.11.41,4.88S162.38,178.25,163.31,177.47Z"/><path class="cls-6" d="M89.06,189.2s12,1.83,15.38,1.54,5.06-15.34,4.63-21.71-8.31-11.69-15.11-9.95-4.57,5.32-4.57,5.32Z"/><path class="cls-6" d="M97.88,190s-2.18,13.07,3,20.55l-20.39-.25L86.23,184"/><path class="cls-10" d="M104.44,190.76s-8.55-1.22-11.2-7l-2.53,3.67,6.54,10.81.58-7.84A45.65,45.65,0,0,0,104.44,190.76Z"/><path class="cls-7" d="M113.48,218.16s-3.82-11.25-7.72-12.32-28.22-7.16-28.22-7.16L77,253.31l1.56,13.06h.19l-.34,5.11c17.72,1.86,27.33-4.39,27.33-4.39l-2.91-20.58,1.9-10.13,4.3,7.6Z"/><path class="cls-7" d="M100.58,204.89a74.87,74.87,0,0,1,2.57-8.41,147.86,147.86,0,0,0-24.72-1.1l-.76,11.39"/><path class="cls-24" d="M109,172.94s3.67,6.85,3,7.62-3.74.41-3.74.41S108.64,176.77,109,172.94Z"/><path class="cls-16" d="M225.06,247.89c-6.08,1.35-.38,5.5-12.87,3.14s-13.12-7.19-21.22-7.87c0,0-15.86-32.39-20.58-34.75s-11.14,14.84-6.41,21.26,21.6,24.63,21.6,24.63,4.81,3.84,19.1,5.27h21.81a4.31,4.31,0,0,0,1.32-1,41,41,0,0,0,3-3.92c2-3,8.16-1.22,9.17-2.91S231.13,246.54,225.06,247.89Z"/><g class="cls-25"><path class="cls-10" d="M218,260.3s-23.15-2.41-29.48-9.62c-3.67-4.17-10.42-11.57-16.45-19.36-6.68-8.63-11.61-16.93-12.32-14.85C157,224.65,169,238.28,169,238.28l17.59,20.12Z"/></g><line class="cls-12" x1="171.03" y1="273.18" x2="172.75" y2="276.54"/><path class="cls-8" d="M239,250.53a20.57,20.57,0,0,0-5.95.5"/><path class="cls-8" d="M235.41,248.89a14.92,14.92,0,0,0-5.11.64"/><path class="cls-8" d="M230.08,247.93a8.07,8.07,0,0,0-2.24.6"/><path class="cls-26" d="M96.84,163.72l.35,6.38a3.65,3.65,0,0,0-1.51,2.52,34.38,34.38,0,0,0,.27,5.3l-1.15.2-3.54-11.06s1.24-3.45,3.24-3.52A8.3,8.3,0,0,1,96.84,163.72Z"/><path class="cls-26" d="M107,153.09s7.2-1.86,7.2,5.63c0,5.55-4.13,6.24-6.2,6.58-4,.65-22.18,1.28-23.84-.27s-.54-11.6,8.31-11.6c1.74,0,4.82-2.9,6.93-5.59.62-.78,1.87-2.32,3.37-2.32C108,145.52,107,153.09,107,153.09Z"/><path class="cls-26" d="M84.64,160.78s-8,1.54-9.09,8.08,7,21.58,14.21,20.52,5.12-19.07,5.12-19.07L93.47,164"/><path class="cls-24" d="M96.77,178.26s.87-.65.29-2.68-3-3.8-4.34-3.22-1.23,3,.4,4.78S95.87,179,96.77,178.26Z"/><path class="cls-27" d="M98.71,164.79s2.58-3.95,1.55-8.26"/><path class="cls-27" d="M102.51,164.17a11.24,11.24,0,0,0,1.19-7.64"/><path class="cls-27" d="M106.23,163.61a11,11,0,0,0,.91-7.08"/><path class="cls-27" d="M110,162.9a10.78,10.78,0,0,0,.62-6.37"/><path class="cls-12" d="M100.26,204.49s-12.85-1.26-21.7-.76l-.47-7.84a29.41,29.41,0,0,1,5.32-.68"/><path class="cls-12" d="M106.61,207.19s-6.08,3.38-5.4,12.49a65.13,65.13,0,0,0,3,15.69"/><line class="cls-12" x1="101.38" y1="247.18" x2="97.67" y2="252.24"/><line class="cls-12" x1="272.03" y1="179.6" x2="205.22" y2="179.6"/><line class="cls-12" x1="270.55" y1="184.67" x2="203.73" y2="184.67"/><line class="cls-12" x1="258.61" y1="234.78" x2="191.8" y2="234.78"/><polyline class="cls-12" points="192.72 227.44 202.66 209.98 204.36 227.69 220.18 198.84 219.06 222.38 234.63 192.77 231.21 222.38 238.86 209.47 239.82 221.87 251.82 198.33 252.22 222.38 257.07 212.76 256 224.66 268.77 198.59"/><path class="cls-7" d="M275.57,15.26c-112.2,0-203.15,7.29-203.15,16.29v35.1l118.11-8.9,151.19-4,137,13V31.55C478.73,22.55,387.77,15.26,275.57,15.26Z"/><path class="cls-14" d="M275.57,50.35c-112.2,0-203.15,7.3-203.15,16.3s91,16.29,203.15,16.29,203.16-7.29,203.16-16.29S387.77,50.35,275.57,50.35Zm0,21.36c-52.56,0-95.16-2.27-95.16-5.06s42.6-5.07,95.16-5.07,95.17,2.27,95.17,5.07S328.13,71.71,275.57,71.71Z"/><g class="cls-28"><polygon class="cls-23" points="233.3 14.39 221.97 14.38 233.29 20.05 233.3 14.39"/><polygon class="cls-23" points="216.86 27.15 216.86 31.3 225.15 27.16 216.86 27.15"/><path class="cls-23" d="M268.78,14.41h-13V17l-8.28,4.14h8.28v6.08h-8.28l8.27,4.15v1.19h0v1.36h-5.1L239.37,28.2v5.66h-6.09V28.19L222,33.85h-5.1V53.31l77.86,0,0-38.93Zm-5.42,15.3,1.63.62.54-1.67.54,1.67,1.63-.62-1,1.46,1.51.89-1.75.16.24,1.73-1.2-1.27L264.32,34l.24-1.74-1.74-.15,1.5-.89ZM238.85,48.86l-2.53-2.67-2.54,2.66.51-3.64-3.66-.32L233.79,43l-2-3.06,3.44,1.3,1.12-3.5,1.13,3.5,3.44-1.3-2,3.07L242,44.89l-3.66.32ZM273.1,19.17l1.63.62.54-1.66.54,1.66,1.63-.62-1,1.46,1.51.9-1.75.15.24,1.73-1.2-1.27-1.21,1.27.24-1.73-1.74-.16,1.5-.89Zm7,17.65-1-.59-.95.59.27-1.09-.86-.72,1.12-.08.42-1,.43,1,1.12.08-.86.72Zm5-5.45-1.21-1.27-1.2,1.27.24-1.74-1.75-.15,1.51-.9-1-1.45,1.64.62.54-1.67.53,1.67,1.64-.62-1,1.46,1.51.89-1.75.15Z"/><polygon class="cls-23" points="216.87 16.93 216.87 21.07 225.15 21.08 216.87 16.93"/><polygon class="cls-23" points="250.71 14.4 239.38 14.39 239.38 20.05 250.71 14.4"/><polygon class="cls-29" points="216.87 15.74 227.53 21.08 230.25 21.08 216.87 14.38 216.87 15.74"/><polygon class="cls-29" points="232.97 27.16 230.25 27.16 216.86 33.85 219.58 33.85 232.97 27.16"/><polygon class="cls-29" points="242.42 21.09 255.81 14.4 255.81 14.4 255.81 14.4 253.09 14.4 239.7 21.09 242.42 21.09"/><polygon class="cls-29" points="242.41 27.17 255.79 33.87 255.79 33.87 255.79 32.51 255.79 32.51 245.13 27.17 242.41 27.17"/><polygon class="cls-30" points="234.51 22.3 234.51 14.39 233.3 14.39 233.29 20.05 221.97 14.38 216.87 14.38 230.25 21.08 227.53 21.08 216.87 15.74 216.87 14.38 216.87 14.38 216.87 14.38 216.87 14.38 216.87 16.93 216.87 16.93 225.15 21.08 216.87 21.07 216.87 21.07 216.87 22.29 234.51 22.3"/><polygon class="cls-30" points="238.16 25.95 238.15 33.86 239.37 33.86 239.37 28.2 250.69 33.87 255.79 33.87 255.79 33.87 255.79 33.87 255.79 33.87 242.41 27.17 245.13 27.17 255.79 32.51 255.79 31.32 247.51 27.17 255.8 27.18 255.8 25.96 238.16 25.95"/><polygon class="cls-30" points="238.16 22.3 255.8 22.31 255.8 21.1 247.52 21.09 255.8 16.95 255.81 14.4 242.42 21.09 239.7 21.09 253.09 14.4 250.71 14.4 239.38 20.05 239.38 14.39 238.16 14.39 238.16 22.3"/><polygon class="cls-30" points="232.97 27.16 219.58 33.85 221.96 33.85 233.29 28.19 233.28 33.86 234.5 33.86 234.51 25.95 216.86 25.94 216.86 27.15 216.86 27.15 225.15 27.16 216.86 31.3 216.86 31.3 216.86 33.85 216.86 33.85 216.86 33.85 216.86 33.85 230.25 27.16 232.97 27.16"/><polygon class="cls-29" points="234.51 25.95 234.5 33.86 238.15 33.86 238.16 25.95 255.8 25.96 255.8 22.31 238.16 22.3 238.16 14.39 236.34 14.39 234.51 14.39 234.51 22.3 216.87 22.29 216.86 25.94 234.51 25.95"/><polygon class="cls-30" points="238.85 43.02 240.89 39.95 237.45 41.25 236.32 37.75 235.19 41.25 231.76 39.95 233.79 43.01 230.63 44.89 234.29 45.21 233.78 48.85 236.32 46.19 238.85 48.85 238.35 45.21 242.01 44.9 238.85 43.02"/><polygon class="cls-30" points="275.37 43.07 276.34 41.61 274.7 42.23 274.16 40.56 273.63 42.23 271.99 41.61 272.96 43.07 271.45 43.96 273.19 44.11 272.95 45.85 274.16 44.58 275.37 45.85 275.13 44.11 276.87 43.96 275.37 43.07"/><polygon class="cls-30" points="264.56 32.21 264.32 33.95 265.53 32.68 266.73 33.95 266.49 32.22 268.24 32.06 266.73 31.17 267.7 29.71 266.06 30.33 265.53 28.66 264.99 30.33 263.36 29.71 264.32 31.17 262.82 32.06 264.56 32.21"/><polygon class="cls-30" points="274.3 21.68 274.06 23.41 275.27 22.14 276.47 23.41 276.24 21.68 277.98 21.53 276.47 20.63 277.44 19.17 275.81 19.79 275.27 18.13 274.73 19.79 273.1 19.17 274.06 20.63 272.56 21.52 274.3 21.68"/><polygon class="cls-30" points="285.12 28.59 286.09 27.13 284.45 27.75 283.92 26.08 283.38 27.75 281.74 27.13 282.71 28.58 281.2 29.48 282.95 29.63 282.71 31.36 283.92 30.1 285.12 31.37 284.88 29.63 286.63 29.48 285.12 28.59"/><polygon class="cls-30" points="279.58 34.93 279.15 33.89 278.73 34.92 277.61 35.01 278.47 35.73 278.2 36.82 279.15 36.23 280.11 36.82 279.84 35.73 280.7 35.01 279.58 34.93"/><polygon id="_3" data-name="3" class="cls-29" points="68.2 22.63 138.11 17.17 138.11 57.58 67.29 69.31 68.2 22.63"/><polygon class="cls-30" points="86.02 22.57 86.02 68.9 120.63 57.58 120.63 17.17 86.02 22.57"/><path id="_1" data-name="1" class="cls-29" d="M102.11,25.94,100,30.55c-.23.5-.72.49-1.22.25L97,30l1.77,6.73c.36,1.22-.51,1.28-1,.78l-3.25-3.15-.36,1.74a.58.58,0,0,1-.65.45l-3.86-.53L91,39.61c.27.79.46,1.11-.12,1.37l-1.31.73,6.92,4.85a.87.87,0,0,1,.36.87l-.44,1.92c2.24-.42,4.23-1,6.46-1.35.2,0,.56.26.57.5l.19,6.9,1.1-.08L104,48.47c0-.23.26-.6.46-.59,2.27.08,4.32.32,6.59.42l-.71-1.83a.88.88,0,0,1,.24-.92l6.16-5.77-1.4-.54c-.61-.18-.47-.52-.31-1.34l.74-3.7-3.75,1.06a.57.57,0,0,1-.7-.35l-.61-1.68L108,36.81c-.38.57-1.25.63-1.07-.63l.8-6.91-1.66,1c-.46.3-.94.38-1.25-.08"/><polygon class="cls-30" points="426.44 17.88 375.29 12.19 375.29 53.87 426.44 57.28 426.44 17.88"/><circle id="_46" data-name="46" class="cls-29" cx="401.71" cy="36.41" r="9.1"/></g><path class="cls-30" d="M311,29.09h-3.62l-.81,2.26h-1.18l3.3-8.64h1l3.3,8.64h-1.17Zm-3.28-.94h2.94l-1.47-4Z"/><path class="cls-30" d="M320.09,22.71v5.87a2.73,2.73,0,0,1-.77,2,3,3,0,0,1-2.06.87H317a3.25,3.25,0,0,1-2.26-.76,2.75,2.75,0,0,1-.85-2.11V22.71H315v5.85a1.79,1.79,0,0,0,2,2,2,2,0,0,0,1.48-.51,2,2,0,0,0,.52-1.46V22.71Z"/><path class="cls-30" d="M321.89,31.35V22.71h2.44a3.85,3.85,0,0,1,2,.5,3.38,3.38,0,0,1,1.34,1.41,4.79,4.79,0,0,1,.48,2.12v.55a4.56,4.56,0,0,1-.48,2.14,3.32,3.32,0,0,1-1.34,1.41,4.22,4.22,0,0,1-2,.51ZM323,23.64v6.77h1.2a2.61,2.61,0,0,0,2-.82,3.41,3.41,0,0,0,.73-2.33v-.5a3.42,3.42,0,0,0-.69-2.29,2.46,2.46,0,0,0-2-.83Z"/><path class="cls-30" d="M310.26,41.78a1.24,1.24,0,0,0-.38-.92,3.46,3.46,0,0,0-1.29-.68,4.08,4.08,0,0,1-1.84-1,2.18,2.18,0,0,1-.58-1.57,2.29,2.29,0,0,1,.57-1.6,2.4,2.4,0,0,1,1.55-.74V34h.89v1.31a2.31,2.31,0,0,1,1.55.83,3,3,0,0,1,.55,1.92h-1.09a2,2,0,0,0-.4-1.33,1.3,1.3,0,0,0-1.07-.5,1.5,1.5,0,0,0-1.08.37,1.35,1.35,0,0,0-.37,1,1.24,1.24,0,0,0,.39,1,3.69,3.69,0,0,0,1.3.66,5.52,5.52,0,0,1,1.41.64,2.26,2.26,0,0,1,.75.83,2.34,2.34,0,0,1,.24,1.09,2.22,2.22,0,0,1-.6,1.62,2.69,2.69,0,0,1-1.69.72v1.13h-.88V44.1a2.58,2.58,0,0,1-1.73-.79,2.65,2.65,0,0,1-.62-1.85h1.09a1.71,1.71,0,0,0,.44,1.26,1.63,1.63,0,0,0,1.23.45,1.85,1.85,0,0,0,1.22-.37A1.28,1.28,0,0,0,310.26,41.78Z"/><path class="cls-30" d="M317.36,41.1h1.2V42h-1.2v2h-1.11V42h-3.93v-.65l3.87-6h1.17Zm-3.79,0h2.68V36.86l-.13.24Z"/><path class="cls-30" d="M319.68,43.42a.7.7,0,0,1,.17-.47.63.63,0,0,1,.51-.19.64.64,0,0,1,.69.66.62.62,0,0,1-.18.46.69.69,0,0,1-.51.19.66.66,0,0,1-.51-.19A.65.65,0,0,1,319.68,43.42Z"/><path class="cls-30" d="M327.05,35.36v.93h-.2a2.84,2.84,0,0,0-2,.76,3.14,3.14,0,0,0-.88,2.07,2.34,2.34,0,0,1,1.86-.78,2.24,2.24,0,0,1,1.8.79,3.05,3.05,0,0,1,.68,2,3.1,3.1,0,0,1-.73,2.14,2.52,2.52,0,0,1-2,.8,2.46,2.46,0,0,1-2-.95,3.83,3.83,0,0,1-.77-2.46v-.42a5.66,5.66,0,0,1,1-3.64,3.71,3.71,0,0,1,3-1.29Zm-1.44,3.89a1.73,1.73,0,0,0-1,.34,1.69,1.69,0,0,0-.66.84v.41a2.85,2.85,0,0,0,.48,1.72,1.45,1.45,0,0,0,1.2.65,1.41,1.41,0,0,0,1.17-.54,2.29,2.29,0,0,0,.42-1.43,2.23,2.23,0,0,0-.43-1.44A1.38,1.38,0,0,0,325.61,39.25Z"/><path class="cls-30" d="M333.77,40.2a2.49,2.49,0,0,1-.82.66,2.2,2.2,0,0,1-1.05.25,2.26,2.26,0,0,1-1.3-.37,2.37,2.37,0,0,1-.86-1,3.59,3.59,0,0,1-.3-1.48,3.63,3.63,0,0,1,.33-1.56,2.47,2.47,0,0,1,.93-1.06,2.76,2.76,0,0,1,1.42-.37,2.43,2.43,0,0,1,2,1,4.2,4.2,0,0,1,.73,2.62v.32a5.62,5.62,0,0,1-1,3.68,3.86,3.86,0,0,1-3,1.19h-.21v-.94h.23a2.6,2.6,0,0,0,2.88-2.87Zm-1.69,0a1.72,1.72,0,0,0,1-.33,2.11,2.11,0,0,0,.68-.84v-.44a3.07,3.07,0,0,0-.47-1.76,1.44,1.44,0,0,0-2.35-.12,2.31,2.31,0,0,0-.44,1.46,2.4,2.4,0,0,0,.42,1.46A1.37,1.37,0,0,0,332.08,40.2Z"/><path class="cls-30" d="M436.23,29l1.14.16v6.11a2.23,2.23,0,0,1-.74,1.84,2.46,2.46,0,0,1-2,.43,3.16,3.16,0,0,1-2-.93,2.68,2.68,0,0,1-.71-1.94l1.13.15a1.66,1.66,0,0,0,1.57,1.79,1.35,1.35,0,0,0,1.13-.29,1.54,1.54,0,0,0,.43-1.19Z"/><path class="cls-30" d="M440.42,34.79v3.38L439.29,38V29.38l3.16.43a3.64,3.64,0,0,1,2.2,1,2.81,2.81,0,0,1,.79,2,2.11,2.11,0,0,1-.78,1.83,3,3,0,0,1-2.23.38Zm0-.93,2,.28a1.8,1.8,0,0,0,1.38-.25,1.37,1.37,0,0,0,.48-1.17,1.89,1.89,0,0,0-.48-1.31,2.19,2.19,0,0,0-1.32-.66l-2.09-.29Z"/><path class="cls-30" d="M449.49,35.11l2.23-4,1.28.18-2.95,5v3.22l-1.12-.16V36.11L446,30.29l1.29.18Z"/><path class="cls-30" d="M436.69,48.09a1.43,1.43,0,0,0-.38-1,4.14,4.14,0,0,0-1.28-.85A4.84,4.84,0,0,1,433.21,45a2.46,2.46,0,0,1-.58-1.65,2,2,0,0,1,.56-1.52,2.1,2.1,0,0,1,1.55-.53V40l.87.12v1.31a2.72,2.72,0,0,1,1.54,1,3.41,3.41,0,0,1,.55,2l-1.08-.14a2.33,2.33,0,0,0-.4-1.39,1.49,1.49,0,0,0-1.06-.64,1.33,1.33,0,0,0-1.07.22,1.19,1.19,0,0,0-.37,1,1.44,1.44,0,0,0,.39,1,4.41,4.41,0,0,0,1.29.83,6.12,6.12,0,0,1,1.39.83,2.8,2.8,0,0,1,.75.93,2.71,2.71,0,0,1,.23,1.13,2,2,0,0,1-.59,1.53,2.31,2.31,0,0,1-1.67.49v1.14l-.87-.12V50.14a2.86,2.86,0,0,1-2.34-3l1.09.15a2,2,0,0,0,.43,1.33,1.86,1.86,0,0,0,1.22.61,1.66,1.66,0,0,0,1.21-.21A1.11,1.11,0,0,0,436.69,48.09Z"/><path class="cls-30" d="M442.7,51.14,441.6,51V43.67l-2.19.52v-1l3.12-.75.17,0Z"/><path class="cls-30" d="M451.25,48.62a4.58,4.58,0,0,1-.66,2.78,2,2,0,0,1-2,.66,2.74,2.74,0,0,1-2-1.2,5.21,5.21,0,0,1-.68-2.83V46.57a4.45,4.45,0,0,1,.65-2.74,2,2,0,0,1,2-.65,2.8,2.8,0,0,1,2,1.17,5.4,5.4,0,0,1,.67,2.85ZM450.16,47a4.34,4.34,0,0,0-.39-2.08,1.59,1.59,0,0,0-1.23-.81,1.14,1.14,0,0,0-1.21.47,3.61,3.61,0,0,0-.4,1.9v1.76a4.42,4.42,0,0,0,.41,2.12,1.54,1.54,0,0,0,1.21.83,1.14,1.14,0,0,0,1.2-.46,3.66,3.66,0,0,0,.41-1.93Z"/><path class="cls-30" d="M458.16,45.23l-3.54,7.54-1.14-.16L457,45.36l-4.63-.63v-.9l5.78.79Z"/><path class="cls-30" d="M459.53,52.87a.65.65,0,0,1,.17-.46.57.57,0,0,1,.5-.12.79.79,0,0,1,.51.26.74.74,0,0,1,.17.5.53.53,0,0,1-.17.43.6.6,0,0,1-.51.12.77.77,0,0,1-.5-.25A.76.76,0,0,1,459.53,52.87Z"/><path class="cls-30" d="M467.75,48.18a1.81,1.81,0,0,1-.34,1.11,1.93,1.93,0,0,1-.91.66,3,3,0,0,1,1.06,1,2.36,2.36,0,0,1,.39,1.31A2,2,0,0,1,467.2,54a2.61,2.61,0,0,1-2,.39,3.3,3.3,0,0,1-2-.94,2.62,2.62,0,0,1-.74-1.88,2,2,0,0,1,.38-1.21,1.92,1.92,0,0,1,1.05-.71,2.82,2.82,0,0,1-.9-.92,2.25,2.25,0,0,1-.33-1.19,2,2,0,0,1,.69-1.63,2.29,2.29,0,0,1,1.83-.39,3,3,0,0,1,1.83.89A2.56,2.56,0,0,1,467.75,48.18Zm-.89,3.91a1.83,1.83,0,0,0-1.64-1.86,1.41,1.41,0,0,0-1.18.29,1.42,1.42,0,0,0-.44,1.12,1.75,1.75,0,0,0,.43,1.22,1.9,1.9,0,0,0,1.2.58,1.46,1.46,0,0,0,1.2-.26A1.33,1.33,0,0,0,466.86,52.09Zm-1.63-5.72a1.25,1.25,0,0,0-1,.26,1.3,1.3,0,0,0-.39,1,1.68,1.68,0,0,0,.39,1.12,1.64,1.64,0,0,0,1,.55,1.2,1.2,0,0,0,1-.27,1.28,1.28,0,0,0,.39-1,1.68,1.68,0,0,0-.4-1.13A1.57,1.57,0,0,0,465.23,46.37Z"/><path class="cls-30" d="M474.51,49.11a1.76,1.76,0,0,1-.34,1.1,1.88,1.88,0,0,1-.91.67,3,3,0,0,1,1.06,1,2.42,2.42,0,0,1,.39,1.32,2,2,0,0,1-.75,1.68,2.57,2.57,0,0,1-2,.39,3.29,3.29,0,0,1-2-.93,2.6,2.6,0,0,1-.74-1.89,1.92,1.92,0,0,1,1.43-1.92,2.79,2.79,0,0,1-.9-.91,2.27,2.27,0,0,1-.33-1.19,2,2,0,0,1,.69-1.64,2.36,2.36,0,0,1,1.83-.39,3,3,0,0,1,1.82.89A2.54,2.54,0,0,1,474.51,49.11Zm-.89,3.9a1.84,1.84,0,0,0-.45-1.24,1.92,1.92,0,0,0-1.19-.62,1.43,1.43,0,0,0-1.18.29,1.42,1.42,0,0,0-.45,1.13,1.73,1.73,0,0,0,.44,1.21,1.86,1.86,0,0,0,1.2.59,1.49,1.49,0,0,0,1.2-.26A1.35,1.35,0,0,0,473.62,53ZM472,47.29a1.25,1.25,0,0,0-1,.26,1.32,1.32,0,0,0-.4,1,1.66,1.66,0,0,0,.39,1.12,1.59,1.59,0,0,0,1.05.55,1.24,1.24,0,0,0,1-.26,1.3,1.3,0,0,0,.39-1,1.66,1.66,0,0,0-.4-1.13A1.61,1.61,0,0,0,472,47.29Z"/><path class="cls-30" d="M154.35,31.3a3.14,3.14,0,0,1-1,2.12,3.29,3.29,0,0,1-2.26.74,3,3,0,0,1-2.45-1.09,4.41,4.41,0,0,1-.93-2.94V29.3a5,5,0,0,1,.43-2.12,3.22,3.22,0,0,1,1.22-1.4,3.39,3.39,0,0,1,1.83-.49,3.15,3.15,0,0,1,2.21.77,3.21,3.21,0,0,1,1,2.12h-1.14a2.44,2.44,0,0,0-.65-1.5,2,2,0,0,0-1.38-.46,2,2,0,0,0-1.71.81,3.73,3.73,0,0,0-.62,2.3v.83a3.74,3.74,0,0,0,.59,2.24,1.88,1.88,0,0,0,1.64.83,2.19,2.19,0,0,0,1.46-.43,2.39,2.39,0,0,0,.67-1.5Z"/><path class="cls-30" d="M160.68,31.78h-3.62L156.25,34h-1.18l3.3-8.63h1l3.3,8.63H161.5Zm-3.28-.93h2.94l-1.47-4Z"/><path class="cls-30" d="M163.83,34V25.41h2.44a3.82,3.82,0,0,1,2,.5,3.32,3.32,0,0,1,1.34,1.41,4.54,4.54,0,0,1,.48,2.12V30a4.69,4.69,0,0,1-.47,2.14,3.4,3.4,0,0,1-1.35,1.41,4.06,4.06,0,0,1-2,.5Zm1.14-7.7v6.77h1.2a2.6,2.6,0,0,0,2.05-.82A3.36,3.36,0,0,0,169,30v-.5a3.42,3.42,0,0,0-.69-2.29,2.44,2.44,0,0,0-2-.83Z"/><path class="cls-30" d="M152.08,44.48a1.22,1.22,0,0,0-.39-.92,3.31,3.31,0,0,0-1.29-.68,4.13,4.13,0,0,1-1.84-1A2.22,2.22,0,0,1,148,40.3a2.29,2.29,0,0,1,.57-1.6,2.45,2.45,0,0,1,1.56-.74v-1.3H151V38a2.31,2.31,0,0,1,1.55.83,3,3,0,0,1,.56,1.92H152a2.08,2.08,0,0,0-.39-1.33,1.33,1.33,0,0,0-1.08-.5,1.5,1.5,0,0,0-1.08.37,1.35,1.35,0,0,0-.37,1,1.24,1.24,0,0,0,.39,1,3.79,3.79,0,0,0,1.3.66,5.45,5.45,0,0,1,1.42.64,2.2,2.2,0,0,1,1,1.92,2.22,2.22,0,0,1-.6,1.62,2.67,2.67,0,0,1-1.69.72v1.13H150V46.8a2.54,2.54,0,0,1-1.73-.79,2.62,2.62,0,0,1-.63-1.86h1.1a1.73,1.73,0,0,0,.43,1.27,1.63,1.63,0,0,0,1.23.45,1.89,1.89,0,0,0,1.22-.37A1.26,1.26,0,0,0,152.08,44.48Z"/><path class="cls-30" d="M158.14,46.7H157V39.39l-2.21.81v-1L158,38h.17Z"/><path class="cls-30" d="M161.5,46.12a.69.69,0,0,1,.16-.47.66.66,0,0,1,.51-.19.67.67,0,0,1,.52.19.7.7,0,0,1,.17.47.65.65,0,0,1-.17.46.7.7,0,0,1-.52.19.69.69,0,0,1-.51-.19A.65.65,0,0,1,161.5,46.12Z"/><path class="cls-30" d="M166.15,41.85H167a1.85,1.85,0,0,0,1.22-.41,1.36,1.36,0,0,0,.44-1.08,1.33,1.33,0,0,0-1.51-1.51,1.6,1.6,0,0,0-1.14.4,1.43,1.43,0,0,0-.42,1.08h-1.1a2.22,2.22,0,0,1,.75-1.71,2.76,2.76,0,0,1,1.91-.68,2.72,2.72,0,0,1,1.92.65,2.34,2.34,0,0,1,.69,1.8,1.92,1.92,0,0,1-.36,1.09,2.31,2.31,0,0,1-1,.79,2.09,2.09,0,0,1,1.1.75,2,2,0,0,1,.39,1.27,2.36,2.36,0,0,1-.76,1.85,2.84,2.84,0,0,1-2,.68,2.92,2.92,0,0,1-2-.66,2.18,2.18,0,0,1-.76-1.74h1.1a1.42,1.42,0,0,0,.44,1.09,2,2,0,0,0,2.41,0,1.61,1.61,0,0,0,.42-1.19,1.44,1.44,0,0,0-.46-1.16,2,2,0,0,0-1.33-.42h-.83Z"/><path class="cls-30" d="M171.88,42.37l.44-4.31h4.43v1h-3.5L173,41.43a2.78,2.78,0,0,1,1.44-.37,2.4,2.4,0,0,1,1.88.78A3.06,3.06,0,0,1,177,44a2.94,2.94,0,0,1-.72,2.1,2.63,2.63,0,0,1-2,.77,2.69,2.69,0,0,1-1.87-.64,2.53,2.53,0,0,1-.83-1.75h1a1.79,1.79,0,0,0,.53,1.12,1.65,1.65,0,0,0,1.13.37,1.47,1.47,0,0,0,1.2-.52A2.19,2.19,0,0,0,175.9,44a2,2,0,0,0-.47-1.39,1.59,1.59,0,0,0-1.25-.53,1.81,1.81,0,0,0-1.13.32l-.29.23Z"/><ellipse class="cls-31" cx="275.57" cy="66.65" rx="95.17" ry="5.06"/><path class="cls-10" d="M179,300.2a32.39,32.39,0,0,0,5,15.68,46.42,46.42,0,0,0,7.68,8.76v0c2.47-23.11,17-30.19,17-30.19a88.73,88.73,0,0,1-9.41,2.29C191.18,298.41,182.07,299.8,179,300.2Z"/><circle class="cls-18" cx="95.85" cy="361.58" r="5.57"/><circle class="cls-18" cx="76.58" cy="364.11" r="5.57"/><circle class="cls-18" cx="57.3" cy="361.58" r="5.57"/><rect class="cls-32" x="74.05" y="305.53" width="4.89" height="49.49"/><path class="cls-32" d="M98.57,362s-.22-9.35-4.94-10.47-17.2-.5-17.2-.5l.14-4.91s17.22-.32,19.17.39,8.21,5.32,8.43,14.51Z"/><path class="cls-32" d="M54.33,362s.22-9.35,5-10.47,17.2-.5,17.2-.5l-.14-4.91s-17.23-.32-19.18.39S49,351.81,48.73,361Z"/><polygon class="cls-32" points="78.64 348.7 82.74 363.95 69.63 363.95 74.38 348.87 78.64 348.7"/><rect class="cls-7" x="73.28" y="306.18" width="6.41" height="4.22"/><circle class="cls-18" cx="172.58" cy="368.84" r="5.74"/><circle class="cls-18" cx="152.74" cy="368.84" r="5.74"/><circle class="cls-18" cx="132.89" cy="368.84" r="5.74"/><rect class="cls-32" x="150.14" y="311.13" width="5.04" height="50.96"/><rect class="cls-7" x="149.13" y="311.84" width="6.92" height="4.22"/><path class="cls-32" d="M175.38,369.25s-.22-9.62-5.09-10.78-17.71-.51-17.71-.51l.15-5.06s17.73-.33,19.74.4,8.45,5.48,8.68,14.94Z"/><path class="cls-32" d="M129.84,369.25s.22-9.62,5.09-10.78,17.71-.51,17.71-.51l-.15-5.06s-17.73-.33-19.74.4-8.45,5.48-8.68,14.94Z"/><polygon class="cls-32" points="154.87 352.98 159.08 368.67 145.59 368.67 150.48 353.15 154.87 352.98"/><path class="cls-32" d="M136.31,297.63v12.91c16,3.63,32.64,0,32.64,0V297.63Z"/><g class="cls-33"><path class="cls-10" d="M149.93,300.86c-4.6-.36-9.13-.66-13.67-1.47v3.32s17.21,4.38,32.74,0V300.9A170.88,170.88,0,0,1,149.93,300.86Z"/></g><path class="cls-14" d="M160.37,274.46l-.08-.21c0-.13-.08-.25-.13-.38-6.6-19.33-3.9-54.66-2.53-68.24,0,0-26-3.34-50,.31,0,0-6.75,63.31,12.49,88,4.4,5.64,43.76,11.59,79.73,2.72C173.75,297.64,164,284.83,160.37,274.46Z"/><g class="cls-34"><path class="cls-10" d="M187.43,336.86s0,14.62,1,18.54a37.31,37.31,0,0,0,2,6.14l1.84-7.91L190.87,339Z"/></g><path class="cls-32" d="M192.62,340.28s-6.94,2.66-12.05.13l-.73-5.82s3.69,2.36,12,.63"/><path class="cls-8" d="M191.73,356c-.84,3.8-1.51,6.75-1.51,6.75"/><path class="cls-7" d="M183.3,360.91s1.94-3.08,7.17,0c0,0,1.56-3.42,7.51-.64a30.27,30.27,0,0,0,11.81,3.12s2.47,1.46,5,2.7,5.1,2.32,5,2.79c-.5,1.85-22.27.93-28.51.34,0,0-7.43.46-8.44-.55S181.78,363.61,183.3,360.91Z"/><path class="cls-12" d="M190.72,360.4s-2.92,7.64.75,8.53"/><path class="cls-32" d="M60.62,292.42V305c15.56,3.52,31.71,0,31.71,0V292.42Z"/><path class="cls-10" d="M73.86,295.43a121.9,121.9,0,0,1-13.34-1.56v3.53s16.79,4.66,31.94,0v-1.92A151.89,151.89,0,0,1,73.86,295.43Z"/><path class="cls-14" d="M84,269.91a1.59,1.59,0,0,0-.07-.2l-.12-.37c-6.41-18.78-3.8-53.09-2.47-66.29,0,0-25.29-3.23-48.57.31,0,0-6.55,61.49,12.13,85.46,4.28,5.48,42.5,11.26,77.45,2.64C97,292.43,87.51,280,84,269.91Z"/><line class="cls-12" x1="196.76" y1="297.14" x2="209.17" y2="294.48"/><line class="cls-12" x1="208.91" y1="297.26" x2="203.34" y2="297.14"/><path class="cls-12" d="M192.16,335.26s-.79-8.44-.68-19.24c.17-16.95,2.53-18.3,2.53-18.3"/><path class="cls-32" d="M205.15,334.88s-6.79,3.5-13.46-.13v6.42a18,18,0,0,0,12,.33Z"/><line class="cls-35" x1="191.63" y1="335.49" x2="191.69" y2="340.3"/><path class="cls-12" d="M251.34,242a13.7,13.7,0,0,1-2.35,11c-2.3,3.1-5.54,3.86-9.59,3.78"/><path class="cls-8" d="M62.38,107.78a60.7,60.7,0,0,1,1.42,6.09"/><g class="cls-36"><line class="cls-37" x1="480.55" y1="115" x2="501.48" y2="115"/><line class="cls-37" x1="480.55" y1="118.43" x2="501.48" y2="118.43"/><line class="cls-37" x1="480.55" y1="121.86" x2="501.48" y2="121.86"/><line class="cls-37" x1="480.55" y1="125.29" x2="501.48" y2="125.29"/><line class="cls-37" x1="480.55" y1="128.72" x2="501.48" y2="128.72"/><line class="cls-37" x1="480.55" y1="132.15" x2="501.48" y2="132.15"/><line class="cls-37" x1="480.55" y1="135.58" x2="501.48" y2="135.58"/><line class="cls-37" x1="480.55" y1="139.01" x2="501.48" y2="139.01"/><line class="cls-37" x1="480.55" y1="142.44" x2="501.48" y2="142.44"/><line class="cls-37" x1="480.55" y1="145.87" x2="501.48" y2="145.87"/><line class="cls-37" x1="480.55" y1="149.3" x2="501.48" y2="149.3"/><line class="cls-37" x1="480.55" y1="152.73" x2="501.48" y2="152.73"/><line class="cls-37" x1="480.55" y1="156.16" x2="501.48" y2="156.16"/><line class="cls-37" x1="480.55" y1="159.59" x2="501.48" y2="159.59"/><line class="cls-37" x1="480.55" y1="162.94" x2="501.48" y2="162.94"/><line class="cls-37" x1="480.55" y1="166.45" x2="501.48" y2="166.45"/><line class="cls-37" x1="480.55" y1="169.88" x2="501.48" y2="169.88"/><line class="cls-37" x1="480.55" y1="173.31" x2="501.48" y2="173.31"/><line class="cls-37" x1="480.55" y1="176.74" x2="501.48" y2="176.74"/><line class="cls-37" x1="480.55" y1="180.17" x2="501.48" y2="180.17"/><line class="cls-37" x1="480.55" y1="183.6" x2="501.48" y2="183.6"/><line class="cls-37" x1="480.55" y1="187.03" x2="501.48" y2="187.03"/><rect class="cls-37" x="480.21" y="190.12" width="20.92" height="46.65"/><rect class="cls-30" x="331.3" y="117.03" width="181.62" height="132.08"/><polyline class="cls-37" points="340.69 211.9 347.03 184.72 351.66 210.96 366.07 156.34 369.84 203.33 380.99 180.6 384.08 203.24 402.08 157.37 409.29 197.15 423.95 142.53 426.52 167.23 433.21 152.82 437.07 184.12 444.53 152.82 448.39 175.2 458.42 138.93 462.54 172.89 473.34 138.41 475.14 162.34 483.03 142.96"/><polyline class="cls-38" points="340.34 211.9 346.52 193.47 351.4 204.78 367.78 141.59 373.53 188.06 380.65 180.6 383.73 203.24 400.54 166.2 408.94 197.15 422.92 154.11 425.75 175.97 431.15 161.05 436.73 196.72 444.19 165.43 447.1 181.38 457.13 153.59 466.65 123.24 471.03 150.76 474.63 172.63 480.8 155.91"/><polyline class="cls-2" points="442.29 169.15 433.84 171.93 435.93 177.86 443.36 172.88"/><path class="cls-2" d="M336.82,155.91l-9.59-3.31s-5.57-4.18-7-4.18-8.39-.89-8.65.28c-.3,1.36,4.64.59,6.67,1.83,0,0-3.07,1.37-2.73,2.77s2.27,4,3.49,3.83,3.48.52,5.4-.52l11.49,7"/><polygon class="cls-14" points="379.73 153.7 377.04 153.81 377.21 157.93 379.73 153.7"/><path class="cls-2" d="M378.08,138s1.78,14.48-.91,18-9.47,7.34-9.85,9c5.24,9.2,26.88,8,30.71,3.24a23.64,23.64,0,0,0-7.16-12.46c-3.25-3.08-2.17-17.42-2.17-17.42Z"/><g class="cls-39"><path class="cls-40" d="M387.6,141.67s1.2,15.82-11.66,18.88,5.39-21.92,5.39-21.92Z"/></g><path class="cls-2" d="M452.28,163.14a8.09,8.09,0,0,0-2.08,1.73c.16-.27,1.26-2,1.39-2.16l.23-.1a1,1,0,0,1-.18-.52.89.89,0,0,1-.18-.41.87.87,0,0,1,.61-.94l1.31-.52a.74.74,0,0,1,.38-.05l.13-.12a19.19,19.19,0,0,0-5.2-.61,3,3,0,0,0-2.1.76c-.47.74-5,10-5,10s-1.09,2.28.84,2.59c2.17.34,7-4.4,7-4.4l5.26-5.11A2.37,2.37,0,0,0,452.28,163.14Z"/><path class="cls-41" d="M443,173.81l1.72-1.31-1.67-2.78-2.35,1.81Z"/><rect class="cls-31" x="440.21" y="167.89" width="2.34" height="3.95" rx="0.63" transform="translate(575.02 623.53) rotate(-127.46)"/><path class="cls-31" d="M443.39,172.64a.18.18,0,0,1,.25,0,.19.19,0,0,1,0,.25.18.18,0,0,1-.25,0A.17.17,0,0,1,443.39,172.64Zm-.45-.29a.18.18,0,1,0,0-.25A.18.18,0,0,0,442.94,172.35Z"/><path class="cls-32" d="M365.31,329.91H348.37s.66-2.68,1.76-3.34a83.73,83.73,0,0,1,8.7-4c.67-.06,2.85.22,6.48,4.78A14.86,14.86,0,0,1,365.31,329.91Z"/><path class="cls-32" d="M361.11,319s1.7-.34,5.37,2.66c0,0-.71,3.85-1.17,5.72,0,0-3.67-4.47-7.58-4.39A28.74,28.74,0,0,0,361.11,319Z"/><line class="cls-42" x1="364.85" y1="328.51" x2="349.07" y2="328.51"/><path class="cls-32" d="M397.18,329.91h13.71s-.66-2.68-1.76-3.34-4.81-4-5.47-4-2.85.22-6.47,4.78A14.52,14.52,0,0,0,397.18,329.91Z"/><path class="cls-32" d="M403.92,319.25s-3.7-.22-5.63,1.53a59.09,59.09,0,0,0-1.1,6.55s3.9-4.35,7.77-3.94a.18.18,0,0,0,.21-.23C404.94,322.36,404.28,320.08,403.92,319.25Z"/><line class="cls-42" x1="397.64" y1="328.51" x2="410.19" y2="328.51"/><path class="cls-14" d="M385.3,215.3H369c-1.32,15.58-5.34,55-5.34,55a35.27,35.27,0,0,0-1.83,7.67l-4.41,44.17a29,29,0,0,1,9.89,3.44c6-26.72,13.05-70.88,15.82-82.65,0-.12.47-2.7.47-2.7a4.17,4.17,0,0,1,1.69,0Z"/><path class="cls-14" d="M402.34,272.06s-2.34-41.18-3.66-56.76H379.23v24.37c.08,0,4.81.3,5.19,1.38.13.78.31,1.82.32,1.9.64,2.69,3,19.37,5.16,36.57l.94,10.57,4.75,27.3,1.21,7.86a23.57,23.57,0,0,1,10.11-1.87l-1.69-35.9C403.53,282.3,402.34,272.06,402.34,272.06Z"/><path class="cls-32" d="M394.36,159.16l-3.16-3.11-.54.36c0,.16.26.89.26,1,0,3.81-2.48,7.87-6.2,7.87s-8.58-4.52-8.58-8.32q0-.34,0-.69l-.8-.47-3.89,3.32s-8.75,2.73-10.93,4.08c0,1.83,5.19,26.86,6.16,29.13s1.86,25.27,1.86,25.27,24,2.1,30.35-1l1.4-24.62s4.64-21,5.94-28.8A88.56,88.56,0,0,0,394.36,159.16Z"/><path class="cls-2" d="M373.33,137.17c-1.2.42-.87,1.83-.6,2.57.14.39,1.1,2.85,2,2.73,1.1-.15,1-2.34.77-3.55C375.35,138,374.65,136.72,373.33,137.17Z"/><path class="cls-31" d="M372.6,133.72s1,5.19,1.13,5.54,1,.56,1,.56l.24-5.57Z"/><path class="cls-2" d="M373.08,129.46c.06.88.67,8.35,1.39,13,.4,2.69,3.34,6.65,4.42,7.75s2.8,2.31,5.47-.27,5-5.54,5.61-11.79c.22-2.27.64-6.2.79-8.74Z"/><path class="cls-43" d="M378.44,137.1l-1.24,5.06a.94.94,0,0,0,1,1.15,5.7,5.7,0,0,0,1.84-.22l-.87-6Z"/><path class="cls-31" d="M385.59,130.68s-5.07,2.41-9.29,1.61,9.26-8.78,11.71-4.61c0,0,4.43-.64,3.73,4.66-.34,2.6-2.14,6.83-2.64,6.85a6.69,6.69,0,0,1-1.81.29S388.12,132.41,385.59,130.68Z"/><path class="cls-31" d="M385.73,129.79a4.7,4.7,0,0,0-5.48-.63c-3.08,1.71-2.26,7.8-1,9.05,0,0-2.13.65-4.64-1.4a5.44,5.44,0,0,0,.87,1.82c-3.36-1.92-5.22-4.74-5.25-6.68a7.18,7.18,0,0,1,5.13-6.44s.31-2.34,4.1-2.66a13.5,13.5,0,0,1,6,.66c1.89.83,3.94,2.49,2.42,4.72A4,4,0,0,1,385.73,129.79Z"/><path class="cls-44" d="M373.87,135.74a8.37,8.37,0,0,1,2.53-7.66"/><path class="cls-44" d="M374,127.67a6.69,6.69,0,0,0-2.55,6.08"/><path class="cls-44" d="M377.06,125.92a11,11,0,0,1,5.55-1.48c1.82,0,3.88.35,4.45,2.25a3.88,3.88,0,0,1-.85,3.14"/><path class="cls-44" d="M385.39,129.05a2.67,2.67,0,0,0-3.66-1,6.49,6.49,0,0,0-3.22,3.56"/><path class="cls-44" d="M376.91,130.79c-.37.68-2,3.89,0,6.58"/><path class="cls-2" d="M388.41,138.56a1.55,1.55,0,0,1,2.51-1c1.14.73,1.07,2.1.49,3.33-.43.91-2.34,2.67-3,2.3C387.43,142.72,388.07,139.57,388.41,138.56Z"/><path class="cls-32" d="M370.43,159.92s-11.68,2-17.08,2a34.15,34.15,0,0,0-4.5-2.31c-.87-.18-9.77-3-9.77-3s1.83,6.18-2.53,7.75c0,0,14.29,7.84,14.81,7.84S368,175.55,368,175.55"/><path class="cls-45" d="M336.12,155.21a6.46,6.46,0,0,1-2.53,7.41l3.66,2.52s3.92-2.26,2.7-8.88Z"/><polygon class="cls-14" points="381.06 163.9 388.38 164.19 386.81 169.08 383.02 169.08 381.06 163.9"/><path class="cls-45" d="M377,153.81s1.19,7.22,5.43,10.13c-.91.57-5.2,3.57-6.64,4.51,0,0-4.45-7.31-4.35-9.29Z"/><path class="cls-45" d="M389.78,154s1.3,7.25-2.95,10.16l6.07,4s1.56-7,1.46-8.94L389.94,154Z"/><polygon class="cls-14" points="383.02 168.89 379.62 193.62 384.85 200.15 389.81 194.01 386.81 168.89 383.02 168.89"/><path class="cls-32" d="M406.26,163.24s9.29,11.79,13.34,13a21.35,21.35,0,0,1,4.31-2.09c1-.31,11.29-3.62,11.29-3.62l1.78,7.28-18,8.36-17.38-6.92"/><polygon class="cls-45" points="436.06 169.67 439.06 176.59 435.41 178.81 431.88 170.85 436.06 169.67"/><path class="cls-2" d="M449.3,162.41a52.35,52.35,0,0,1,4.16-5.34,2.3,2.3,0,0,1,.85-.64.79.79,0,0,1,.94.29,1.11,1.11,0,0,1-.08.95c-1.33,3.19-3.95,5.71-5.26,8.91"/><line class="cls-38" x1="451.3" y1="159.65" x2="449.78" y2="161.79"/><path class="cls-38" d="M449.12,159.52s-.65,1-.91,1.4"/><line class="cls-38" x1="451.61" y1="163.59" x2="450.95" y2="164.77"/><path class="cls-38" d="M321.75,152a10.18,10.18,0,0,0-2.76,1.89,1.84,1.84,0,0,0-.53.74.69.69,0,0,0,.27.81c.31.18.68,0,1-.15a6.48,6.48,0,0,1,3.72-.74"/><path class="cls-38" d="M322.2,154.61a4.3,4.3,0,0,1-2.52,2.23"/><path class="cls-38" d="M319.33,151.18l-1-.52"/><line class="cls-46" x1="370.03" y1="194.3" x2="384.44" y2="203.56"/><line class="cls-46" x1="371.75" y1="199.61" x2="380.49" y2="206.3"/><line class="cls-46" x1="353.48" y1="162.1" x2="356.69" y2="165.19"/><path class="cls-46" d="M419.72,176.33a8.16,8.16,0,0,1,.38,3"/><circle class="cls-37" cx="455.88" cy="219.05" r="14.15"/><polyline class="cls-37" points="457.92 204.87 455.77 219.45 467.78 226.31"/><circle class="cls-37" cx="422.86" cy="219.05" r="14.15"/><polyline class="cls-37" points="424.89 204.87 422.75 219.45 435.19 212.89"/><rect class="cls-10" x="329.45" y="118.35" width="181.61" height="2.06"/><path class="cls-46" d="M363,174.85a10.62,10.62,0,0,1,3.75,1.7"/><path class="cls-46" d="M403,179.44a57.63,57.63,0,0,0,.62-9.24"/><rect class="cls-14" x="326.88" y="112.43" width="186.76" height="6.17"/><g class="cls-47"><path class="cls-48" d="M324.36,156.53s25.8,13,28.26,13.27c3.88.44,14.4,2.18,15.3,6.81,0,0-2.57,5.28-1.28,16.47l-14-16.34-14.92-7.46-17.45-10.13Z"/><path class="cls-48" d="M403.81,172s12.22,13.25,15.3,13.89l9.14-2.7-14,6.18-10.55-3.86-1-4.66A50.54,50.54,0,0,0,403.81,172Z"/></g></g></g></g></svg>