<svg xmlns="http://www.w3.org/2000/svg" xmlns:xlink="http://www.w3.org/1999/xlink" viewBox="0 0 522 390"><defs><style>.cls-1,.cls-24,.cls-27{fill:none;}.cls-2{isolation:isolate;}.cls-3{fill:#fc5a20;}.cls-4{clip-path:url(#clip-path);}.cls-5{fill:#a34300;}.cls-6{fill:#432f64;}.cls-7{fill:#282726;}.cls-8{fill:#fff;}.cls-9{fill:#0f66ab;}.cls-10{fill:#9267dc;}.cls-11{fill:#f9b485;}.cls-12{fill:#c14f28;}.cls-13{opacity:0.25;}.cls-13,.cls-18,.cls-21,.cls-22,.cls-28{mix-blend-mode:multiply;}.cls-14{fill:#743000;}.cls-15{clip-path:url(#clip-path-2);}.cls-16{fill:#ac1c19;}.cls-17{fill:#5d428c;}.cls-18{fill:#010001;}.cls-18,.cls-21{opacity:0.2;}.cls-19{fill:#ffda00;}.cls-20{fill:#85390e;}.cls-22{opacity:0.15;}.cls-23{fill:#c18c66;}.cls-24{stroke:#c18c66;stroke-miterlimit:10;stroke-width:1px;}.cls-24,.cls-27{stroke-linecap:round;}.cls-25{fill:#ea2828;}.cls-26{clip-path:url(#clip-path-3);}.cls-27{stroke:#9267dc;stroke-linejoin:round;stroke-width:0.66px;}.cls-28{fill:#1e120d;opacity:0.23;}.cls-29{fill:#b12a29;}</style><clipPath id="clip-path"><path class="cls-1" d="M28,270.67c3.24,13.32,9.62,48,52,14.69,47.42-37.29,95.25-56.79,136.62-34.27C240.72,264.22,348.41,365.66,412.88,351S495.62,26.85,302.23,32.73,16.47,223.15,28,270.67Z"/></clipPath><clipPath id="clip-path-2"><path class="cls-1" d="M280.1,368.61c-6.9-.77-15.4-1.2-20.47-5.68a39.59,39.59,0,0,1-6.64,3.63,21.4,21.4,0,0,1-9.06,2c-1.23,5.6.4,12,.4,12h48.78S289.64,369.67,280.1,368.61Z"/></clipPath><clipPath id="clip-path-3"><path class="cls-1" d="M311,368.61c-6.9-.77-15.39-1.2-20.46-5.68a39.73,39.73,0,0,1-6.65,3.63,21.4,21.4,0,0,1-9.05,2c-1.24,5.6.39,12,.39,12H324S320.54,369.67,311,368.61Z"/></clipPath></defs><title>_</title><g class="cls-2"><g id="Layer_1" data-name="Layer 1"><path class="cls-3" d="M28,270.67c3.24,13.32,9.62,48,52,14.69,47.42-37.29,95.25-56.79,136.62-34.27C240.72,264.22,348.41,365.66,412.88,351S495.62,26.85,302.23,32.73,16.47,223.15,28,270.67Z"/></g><g id="Layer_2" data-name="Layer 2"><g class="cls-4"><polygon class="cls-5" points="408.61 182.56 426.97 368.28 433.61 368.28 433.61 182.56 408.61 182.56"/><polygon class="cls-5" points="134.35 185.06 115.99 381.46 109.35 381.46 109.35 185.06 134.35 185.06"/><polygon class="cls-5" points="344.91 182.56 360.15 381.46 366.8 381.46 382.03 182.56 344.91 182.56"/><polygon class="cls-5" points="159.68 169.88 174.92 366.27 181.56 366.27 196.8 169.88 159.68 169.88"/></g><path class="cls-6" d="M318.68,135.62s10.19,21.77,10.44,33.69H302.33s-2.32-21.51-6.7-33.18Z"/><polygon class="cls-6" points="378.61 143.09 238.57 143.09 260.03 43.94 400.07 43.94 378.61 143.09"/><polygon class="cls-7" points="369.74 143.09 229.7 143.09 251.16 43.94 391.2 43.94 369.74 143.09"/><polygon class="cls-8" points="370.73 124.47 238.16 124.47 254.03 49.77 386.6 49.77 370.73 124.47"/><polygon class="cls-9" points="300.8 124.47 238.16 124.47 254.03 49.77 316.67 49.77 300.8 124.47"/><path class="cls-6" d="M356.66,168.46s1.77,4.58,0,7.39H330.07v-1.62Z"/><polygon class="cls-8" points="356.66 168.46 272.08 168.46 249.22 174.23 330.07 174.23 356.66 168.46"/><rect class="cls-10" x="249.22" y="174.23" width="80.85" height="1.61"/><path class="cls-8" d="M261.81,58.41A4.37,4.37,0,0,0,263,62.75l-.56.6c-.6-.38-2.25-1.78-1.59-4.94a7.07,7.07,0,0,1,3.66-4.93l.31.59A7,7,0,0,0,261.81,58.41Z"/><path class="cls-8" d="M268.59,57.13a1.65,1.65,0,0,0-.5-.07,1.93,1.93,0,0,0-1.6,1.13l-.35,1.67h.77l-.18.83h-2.41l.17-.82h.65l.59-2.84h-.64l.17-.81h1.39l-.13,1.13h0a2,2,0,0,1,1.76-1.2,2,2,0,0,1,.48.05Z"/><path class="cls-8" d="M270.87,53.48c.59.37,2.25,1.77,1.58,4.93a7.18,7.18,0,0,1-3.67,4.94l-.31-.6a7.09,7.09,0,0,0,3-4.34,4.38,4.38,0,0,0-1.15-4.34Z"/><path class="cls-8" d="M278.23,53.48c.59.37,2.25,1.77,1.57,4.93a7.22,7.22,0,0,1-3.69,4.94l-.31-.6a7.1,7.1,0,0,0,3-4.34,4.41,4.41,0,0,0-1.14-4.34Z"/><path class="cls-8" d="M286.12,57h0a1.92,1.92,0,0,1,1.75-.88c1.18,0,1.54.74,1.32,1.73l-.43,2h.64l-.18.82h-1.64l.57-2.63c.15-.66,0-1.09-.78-1.09a1.43,1.43,0,0,0-1.29.81l-.46,2.09h.6l-.18.82h-2.24l.18-.82h.64l.62-2.84h-.65l.18-.81h1.39Z"/><path class="cls-8" d="M291.59,57.68l.2-.94h3.68l-.21.94Zm-.49,2.24.2-.94H295l-.21.94Z"/><path class="cls-8" d="M297.47,57.68l.21-.94h3.67l-.21.94Zm-.5,2.24.21-.94h3.67l-.2.94Z"/><path class="cls-8" d="M260.25,68.36h0a1.73,1.73,0,0,1,1.61-.73c1.18,0,1.54.74,1.34,1.74l-.42,2h.64l-.17.81h-1.64l.55-2.63c.14-.64-.06-1.06-.79-1.06a1.4,1.4,0,0,0-1.28.78l-.44,2.1h.6l-.17.81h-2.24l.17-.81h.64l1.16-5.52h-.65l.17-.81H261l-.55,2.6Z"/><path class="cls-8" d="M268.88,68.61a1.56,1.56,0,0,0-.49-.07,1.93,1.93,0,0,0-1.6,1.13l-.35,1.68h.76l-.18.82h-2.39l.17-.81h.64l.6-2.85h-.64l.17-.81H267l-.14,1.13h0a2,2,0,0,1,1.76-1.2,2,2,0,0,1,.47.05Z"/><path class="cls-8" d="M274,70.18h-3.26c-.09.85.44,1.23,1.2,1.23a2.25,2.25,0,0,0,1.49-.47l.2.73a3.25,3.25,0,0,1-2,.57,1.71,1.71,0,0,1-1.84-2.31,2.75,2.75,0,0,1,2.8-2.3,1.55,1.55,0,0,1,1.58,2A2.2,2.2,0,0,1,274,70.18Zm-3.13-.64h2.41c.14-.79-.32-1.12-.85-1.12A1.61,1.61,0,0,0,270.88,69.54Z"/><path class="cls-8" d="M275.18,72.17l.17-.81H276l.62-2.88H276l.17-.78h.65l.21-1a2,2,0,0,1,2.07-1.75,1.93,1.93,0,0,1,.84.17l-.18.83a1.33,1.33,0,0,0-.67-.14,1,1,0,0,0-1.05.9l-.21,1h1.45l-.17.78h-1.45l-.63,2.9h1l-.17.79Z"/><path class="cls-8" d="M280.59,69.16l.2-.93h3.66l-.2.93Zm-.49,2.24.21-.93H284l-.2.93Z"/><path class="cls-8" d="M286.91,66.79a1,1,0,0,0,.62-.65.15.15,0,0,0,0-.08.33.33,0,0,1-.17,0,.41.41,0,0,1-.41-.54.73.73,0,0,1,.7-.54c.38,0,.6.28.49.77A1.69,1.69,0,0,1,287,67.12Z"/><path class="cls-8" d="M288,72.91l4.38-8.45.82.26-4.37,8.44Z"/><path class="cls-8" d="M256.74,78.49l.69-.59,1.72,1.95-.1.48-2.54,2-.44-.58,2-1.61Z"/><path class="cls-8" d="M263.34,82.92a2.11,2.11,0,0,1-1.82.8c-.93,0-1.44-.55-1.28-1.3s1-1.29,2.36-1.29h1l.07-.33c.13-.62-.18-.9-.89-.9s-1.07.31-1.15.71l0,.08h-.9l.06-.25c.12-.6.81-1.32,2.21-1.32,1.23,0,1.93.52,1.67,1.73l-.42,2h.52l-.17.81h-1.26l0-.73Zm.13-1.19h-.9c-.7,0-1.23.2-1.32.64s.22.6.71.6a1.94,1.94,0,0,0,1.38-.63Z"/><path class="cls-8" d="M267.94,80.09l1.29,1.61-.7.58-1.72-2,.1-.48,2.56-1.95.44.59Z"/><path class="cls-8" d="M271.65,83.66,275,78.23a1.14,1.14,0,0,1,.27-.31h-2.94L272.13,79h-.8l.46-1.94h4.78l-.14.64-3.69,6Z"/><path class="cls-8" d="M279.76,82.92a2.11,2.11,0,0,1-1.82.8c-.94,0-1.44-.55-1.27-1.3s1.05-1.29,2.36-1.29h1l.07-.33c.14-.62-.17-.9-.88-.9s-1.07.31-1.16.71l0,.08h-.9l.06-.25c.13-.6.82-1.32,2.23-1.32,1.22,0,1.92.52,1.66,1.73l-.44,2h.52l-.17.81h-1.27l0-.73Zm.14-1.19H279c-.69,0-1.23.2-1.32.64s.22.6.71.6a2,2,0,0,0,1.39-.63Z"/><path class="cls-8" d="M284.37,80.09l1.28,1.61-.69.58-1.72-2,.11-.48,2.57-1.95.44.59Z"/><path class="cls-8" d="M253.86,95.2a.47.47,0,0,1-.47-.58.78.78,0,0,1,.71-.6.47.47,0,0,1,.47.6A.75.75,0,0,1,253.86,95.2Z"/><path class="cls-8" d="M257.57,92.89c-.21,1,.33,1.49,1.12,1.49a2.31,2.31,0,0,0,1.51-.47l.19.73a3.15,3.15,0,0,1-1.95.56,1.7,1.7,0,0,1-1.85-2.31,2.61,2.61,0,0,1,2.77-2.29c1.44,0,1.75.81,1.58,1.6l-.06.28H260l0-.14c.12-.57-.12-.92-.87-.92S257.8,91.79,257.57,92.89Z"/><path class="cls-8" d="M263.05,93.67l0,.09c-.08.4.18.69.88.69s1-.23,1.11-.59-.43-.49-1-.59c-.76-.15-1.64-.35-1.42-1.37a1.94,1.94,0,0,1,2.09-1.3c1.41,0,1.78.57,1.64,1.24l-.07.34h-.92l0-.18c.09-.42-.13-.66-.79-.66-.45,0-.92.18-1,.59s.51.52,1.11.65c.81.16,1.52.42,1.33,1.32-.16.73-.83,1.3-2.24,1.3s-1.83-.61-1.69-1.24l.06-.29Z"/><path class="cls-8" d="M268.48,93.67l0,.09c-.08.4.18.69.88.69s1-.23,1.12-.59-.43-.49-1-.59c-.75-.15-1.63-.35-1.41-1.37a1.94,1.94,0,0,1,2.09-1.3c1.41,0,1.78.57,1.64,1.24l-.07.34h-.93l0-.18c.09-.42-.13-.66-.79-.66-.45,0-.92.18-1,.59s.5.52,1.11.65c.81.16,1.51.42,1.32,1.32-.16.73-.83,1.3-2.24,1.3s-1.83-.61-1.69-1.24l.06-.29Z"/><path class="cls-8" d="M276.91,95.13l.18-.81h.82L279,89.4h-1.69l-.22,1h-.79l.44-1.86h5.93l-.38,1.86h-.78l.22-1H280l-1.07,4.92h.84l-.18.81Z"/><path class="cls-8" d="M286.53,93.14H283.3c-.09.86.43,1.24,1.19,1.24a2.2,2.2,0,0,0,1.47-.47l.2.73a3.28,3.28,0,0,1-2,.56,1.69,1.69,0,0,1-1.81-2.31,2.75,2.75,0,0,1,2.79-2.29,1.54,1.54,0,0,1,1.56,2A2.5,2.5,0,0,1,286.53,93.14Zm-3.09-.64h2.38c.15-.78-.3-1.12-.83-1.12A1.6,1.6,0,0,0,283.44,92.5Z"/><path class="cls-8" d="M287.51,95.13l.17-.81h.54l1.6-1.43-.92-1.41h-.59l.18-.82h2.18l-.19.82h-.42l.61,1,1.05-1h-.46l.18-.82h2l-.18.82h-.58l-1.56,1.4,1,1.44h.54l-.18.81H290.3l.18-.81h.46l-.64-1-1.08,1h.5l-.18.81Z"/><path class="cls-8" d="M296.6,89.43l-.27,1.23h1.44l-.18.78h-1.44l-.45,2c-.13.56.05.86.53.86a2.36,2.36,0,0,0,.84-.13l-.19.83a3.35,3.35,0,0,1-1,.16c-1,0-1.39-.55-1.15-1.65l.47-2.11h-.65l.17-.78h.65l.43-1.23Z"/><path class="cls-8" d="M253,103h0a1.87,1.87,0,0,1,1.71-.88c1.16,0,1.52.74,1.31,1.73l-.41,2h.63l-.17.82h-1.62L255,104c.14-.66,0-1.09-.77-1.09a1.4,1.4,0,0,0-1.27.81l-.44,2.09h.59l-.17.82h-2.21l.17-.82h.63l.6-2.84h-.64l.17-.81h1.37Z"/><path class="cls-8" d="M258.39,103.61l.2-.94h3.62l-.2.94Zm-.47,2.24.2-.94h3.61l-.2.94Z"/><path class="cls-8" d="M265.49,102.81h0a1.74,1.74,0,0,1,1.6-.73c1.16,0,1.52.74,1.31,1.73l-.43,2h.64l-.18.82h-1.62l.56-2.63c.14-.65,0-1.06-.78-1.06a1.39,1.39,0,0,0-1.26.78l-.45,2.09h.59l-.17.82h-2.21l.17-.82h.63l1.18-5.51h-.64l.17-.81h1.63l-.55,2.6Z"/><path class="cls-8" d="M270.47,106.68a.45.45,0,0,1-.45-.58.78.78,0,0,1,.71-.59.46.46,0,0,1,.46.59A.75.75,0,0,1,270.47,106.68Z"/><path class="cls-8" d="M277.14,104.38c-.22,1,.32,1.48,1.11,1.48a2.27,2.27,0,0,0,1.5-.47l.19.73a3.15,3.15,0,0,1-1.95.56c-1.4,0-2.15-.79-1.82-2.3a2.65,2.65,0,0,1,2.78-2.3c1.43,0,1.73.81,1.56,1.6l-.06.29h-.88l0-.15c.12-.57-.12-.92-.85-.92S277.38,103.28,277.14,104.38Z"/><path class="cls-8" d="M284.68,105.89a2.11,2.11,0,0,1-1.81.79c-.93,0-1.42-.54-1.25-1.3s1-1.28,2.35-1.28h1l.08-.34c.13-.62-.17-.89-.88-.89s-1.06.3-1.15.7l0,.09h-.89l.06-.26c.13-.59.81-1.32,2.21-1.32,1.22,0,1.91.53,1.64,1.73l-.44,2h.52l-.18.82h-1.26l.05-.73Zm.15-1.2h-.9c-.69,0-1.22.2-1.32.64s.21.61.7.61a2,2,0,0,0,1.39-.63Z"/><path class="cls-8" d="M289,105.8h.59l-.18.82h-2.21l.18-.82H288l1.22-5.51h-.62l.18-.81h1.62Z"/><path class="cls-8" d="M292.62,105.8h.59l-.18.82h-2.21l.18-.82h.62l1.23-5.51h-.62l.18-.81H294Z"/><path class="cls-8" d="M249.79,115.82a4.42,4.42,0,0,0,1.13,4.35l-.56.59c-.58-.38-2.19-1.78-1.53-4.94a7.1,7.1,0,0,1,3.61-4.93l.3.6A7,7,0,0,0,249.79,115.82Z"/><path class="cls-8" d="M252.53,118.1l.18-.83h1.63l1-4.53-1.57.74-.3-.63,2.33-1.34h.81l-1.22,5.76h1.49l-.18.83Z"/><path class="cls-8" d="M262.56,116.11h-3.21c-.08.85.43,1.23,1.19,1.23a2.18,2.18,0,0,0,1.46-.47l.2.73a3.21,3.21,0,0,1-2,.57,1.7,1.7,0,0,1-1.81-2.31,2.72,2.72,0,0,1,2.76-2.3,1.54,1.54,0,0,1,1.55,2A2.2,2.2,0,0,1,262.56,116.11Zm-2.36-4.89h1.25l.49,1.75h-.8Zm-.71,4.25h2.36c.15-.79-.3-1.12-.83-1.12A1.58,1.58,0,0,0,259.49,115.47Z"/><path class="cls-8" d="M264.93,110.89c.58.38,2.19,1.77,1.51,4.93a7.19,7.19,0,0,1-3.63,4.94l-.3-.59a7.12,7.12,0,0,0,3-4.35,4.39,4.39,0,0,0-1.1-4.33Z"/><path class="cls-8" d="M271.83,115.82a4.42,4.42,0,0,0,1.09,4.35l-.56.59c-.58-.38-2.18-1.78-1.5-4.94a7.2,7.2,0,0,1,3.65-4.93l.3.6A7.13,7.13,0,0,0,271.83,115.82Z"/><path class="cls-8" d="M276.64,117.39l.43-2h-1.81l.17-.78h1.81l.42-1.94h.88l-.43,1.94h1.73l-.17.78h-1.73l-.42,2Z"/><path class="cls-8" d="M280.33,118.84l4.34-8.45.81.26-4.34,8.45Z"/><path class="cls-8" d="M283.48,118.84l4.35-8.45.81.26-4.35,8.45Z"/><polygon class="cls-9" points="347.36 75.12 320.67 75.12 323.87 60.08 350.56 60.08 347.36 75.12"/><path class="cls-8" d="M347.34,63.28H336.77a.74.74,0,0,1-.72-.89h0a.75.75,0,0,1,.72-.59h10.57a.73.73,0,0,1,.72.89h0A.74.74,0,0,1,347.34,63.28Z"/><path class="cls-8" d="M346.84,66H336.27a.73.73,0,0,1-.72-.89h0a.74.74,0,0,1,.72-.59h10.57a.74.74,0,0,1,.72.89h0A.74.74,0,0,1,346.84,66Z"/><path class="cls-8" d="M346.27,68.83h-9.14a.71.71,0,0,1-.62-.89h0a.66.66,0,0,1,.62-.59h9.14a.72.72,0,0,1,.62.89h0A.67.67,0,0,1,346.27,68.83Z"/><path class="cls-8" d="M345.28,72h-8.79a.71.71,0,0,1-.6-.89h0a.66.66,0,0,1,.6-.59h8.79a.71.71,0,0,1,.6.89h0A.65.65,0,0,1,345.28,72Z"/><path class="cls-8" d="M331.44,68A4.29,4.29,0,0,0,333.56,65a2.9,2.9,0,0,0-3-3.51A4.28,4.28,0,0,0,326.49,65,2.94,2.94,0,0,0,327.65,68a6.91,6.91,0,0,0-4.75,5.37l-.27,1.77h11.5l.31-1.77A4.63,4.63,0,0,0,331.44,68Z"/><polygon class="cls-9" points="343.36 94.48 316.67 94.48 319.87 79.44 346.56 79.44 343.36 94.48"/><path class="cls-8" d="M343.35,82.64H332.78a.73.73,0,0,1-.72-.89h0a.73.73,0,0,1,.72-.59h10.57a.74.74,0,0,1,.72.89h0A.74.74,0,0,1,343.35,82.64Z"/><path class="cls-8" d="M342.84,85.33H332.27a.73.73,0,0,1-.72-.89h0a.73.73,0,0,1,.72-.59h10.57a.73.73,0,0,1,.72.89h0A.74.74,0,0,1,342.84,85.33Z"/><path class="cls-8" d="M342.27,88.19h-9.14a.72.72,0,0,1-.62-.89h0a.66.66,0,0,1,.62-.59h9.14a.72.72,0,0,1,.63.89h0A.69.69,0,0,1,342.27,88.19Z"/><path class="cls-8" d="M341.29,91.34h-8.8a.71.71,0,0,1-.6-.89h0a.66.66,0,0,1,.6-.59h8.8a.72.72,0,0,1,.6.89h0A.65.65,0,0,1,341.29,91.34Z"/><path class="cls-8" d="M327.45,87.34a4.32,4.32,0,0,0,2.12-3,2.91,2.91,0,0,0-3-3.5,4.28,4.28,0,0,0-4.11,3.5,3,3,0,0,0,1.16,3,6.93,6.93,0,0,0-4.75,5.37l-.27,1.77h11.5l.31-1.77A4.64,4.64,0,0,0,327.45,87.34Z"/><polygon class="cls-9" points="339.07 114.16 312.38 114.16 315.57 99.12 342.27 99.12 339.07 114.16"/><path class="cls-8" d="M339.05,102.32H328.48a.74.74,0,0,1-.72-.89h0a.75.75,0,0,1,.72-.59h10.57a.73.73,0,0,1,.72.89h0A.73.73,0,0,1,339.05,102.32Z"/><path class="cls-8" d="M338.55,105H328a.73.73,0,0,1-.72-.89h0a.74.74,0,0,1,.72-.59h10.57a.74.74,0,0,1,.72.89h0A.74.74,0,0,1,338.55,105Z"/><path class="cls-8" d="M338,107.87h-9.14a.71.71,0,0,1-.62-.89h0a.67.67,0,0,1,.62-.59H338a.72.72,0,0,1,.62.89h0A.67.67,0,0,1,338,107.87Z"/><path class="cls-8" d="M337,111H328.2a.71.71,0,0,1-.6-.89h0a.66.66,0,0,1,.6-.59H337a.72.72,0,0,1,.6.89h0A.65.65,0,0,1,337,111Z"/><path class="cls-8" d="M323.15,107a4.32,4.32,0,0,0,2.12-2.94,2.9,2.9,0,0,0-3-3.5,4.27,4.27,0,0,0-4.11,3.5,2.94,2.94,0,0,0,1.16,2.94,6.91,6.91,0,0,0-4.75,5.37l-.27,1.77h11.5l.31-1.77A4.63,4.63,0,0,0,323.15,107Z"/><path class="cls-9" d="M378.23,66.32H354.4A1.41,1.41,0,0,1,353,64.63l.56-2.81A1.4,1.4,0,0,1,355,60.69h23.83a1.4,1.4,0,0,1,1.37,1.68l-.55,2.81A1.41,1.41,0,0,1,378.23,66.32Z"/><path class="cls-9" d="M363.73,74H352.66a1.11,1.11,0,0,1-1.09-1.34l.67-3.39a1.11,1.11,0,0,1,1.09-.9h11.08a1.12,1.12,0,0,1,1.09,1.34l-.68,3.39A1.11,1.11,0,0,1,363.73,74Z"/><path class="cls-9" d="M374.77,85.68H350.94A1.41,1.41,0,0,1,349.56,84l.56-2.81a1.4,1.4,0,0,1,1.38-1.13h23.83a1.4,1.4,0,0,1,1.37,1.68l-.56,2.81A1.4,1.4,0,0,1,374.77,85.68Z"/><path class="cls-9" d="M360.27,93.37H349.19A1.12,1.12,0,0,1,348.1,92l.68-3.39a1.11,1.11,0,0,1,1.09-.9h11.07a1.12,1.12,0,0,1,1.1,1.34l-.68,3.39A1.11,1.11,0,0,1,360.27,93.37Z"/><path class="cls-9" d="M369,105.36H345.12a1.4,1.4,0,0,1-1.37-1.69l.56-2.81a1.39,1.39,0,0,1,1.37-1.13h23.83a1.41,1.41,0,0,1,1.38,1.69l-.56,2.81A1.4,1.4,0,0,1,369,105.36Z"/><path class="cls-9" d="M354.46,113.05H343.38a1.11,1.11,0,0,1-1.09-1.34l.67-3.39a1.12,1.12,0,0,1,1.09-.9h11.08a1.12,1.12,0,0,1,1.09,1.34l-.67,3.39A1.11,1.11,0,0,1,354.46,113.05Z"/><path class="cls-1" d="M196.28,75.88c-2.95-7-4-15-1.43-22.12a5.38,5.38,0,0,1,1.4-2.3c2-1.68,5-.15,6.83,1.72a42.58,42.58,0,0,1,4.59,6.15c4.37,6.69,8.9,13.87,9,21.88a11.94,11.94,0,0,1-1.32,6.13,26.57,26.57,0,0,1-4.94,5.55c-2.56,2.45-3.42,0-5.28-2.49A68.3,68.3,0,0,1,196.28,75.88Z"/><path class="cls-11" d="M245.85,352.76s.64,8.28-1.31,14.17,0,13.45,0,13.45h48.57s-3.77-10.49-13.31-11.56-21.95-1.74-24.33-13.1-2.25-11.47-2.25-11.47l-8.23,2Z"/><path class="cls-12" d="M280.1,368.61c-6.9-.77-15.4-1.2-20.47-5.68a39.59,39.59,0,0,1-6.64,3.63,21.4,21.4,0,0,1-9.06,2c-1.23,5.6.4,12,.4,12h48.78S289.64,369.67,280.1,368.61Z"/><g class="cls-13"><path d="M280.1,368.61c-6.9-.77-15.4-1.2-20.47-5.68a39.59,39.59,0,0,1-6.64,3.63,21.4,21.4,0,0,1-9.06,2c-1.23,5.6.4,12,.4,12h48.78S289.64,369.67,280.1,368.61Z"/></g><path class="cls-14" d="M244.26,381.46H293a21.8,21.8,0,0,0-2.12-4.39H243.55A31.23,31.23,0,0,0,244.26,381.46Z"/><path class="cls-8" d="M280.11,368.61l-.22,0a13.25,13.25,0,0,0-4.95,10.15,12.19,12.19,0,0,0,.15,1.82h18S289.64,369.67,280.11,368.61Z"/><g class="cls-15"><path class="cls-16" d="M262.59,364.52c-2.66.86-5.6,3-5.58,6.14a.49.49,0,0,0,1,0c0-2.67,2.62-4.47,4.86-5.19C263.44,365.28,263.19,364.33,262.59,364.52Z"/><path class="cls-16" d="M265.55,365.28c-2.66.86-5.6,3-5.57,6.14a.49.49,0,0,0,1,0c0-2.68,2.62-4.47,4.86-5.19C266.41,366,266.15,365.09,265.55,365.28Z"/><path class="cls-16" d="M268.93,365.9c-2.66.85-5.6,3-5.57,6.14a.49.49,0,0,0,1,0c0-2.68,2.62-4.48,4.86-5.2C269.79,366.65,269.53,365.7,268.93,365.9Z"/></g><path class="cls-17" d="M171.41,210.28s61.43-4.83,69.88-5.29,22.6-4.13,22.38,12.87-5.94,134.39-5.94,134.39-1.37,3.21-14.39.92c2.08.33-7.3-41.12-8.67-59s-1.6-50.77-.69-59c-1.14.46-56.4,0-56.4,0s-6.33-.12-10.05-8.07C164.53,220.62,164.91,213.21,171.41,210.28Z"/><path class="cls-18" d="M243.34,353.17a54.1,54.1,0,0,0,6.53.79c-.55-11.78-1.7-30.49-3.75-39.4-3.12-13.62-3.64-82.29-3.64-82.29h-3.65s-3.88,1.18-9.05,2.8c2.47,0,4-.09,4.21-.16-.91,8.27-.68,41.12.69,59S245.42,353.5,243.34,353.17Z"/><rect class="cls-9" x="183.35" y="265.6" width="10.87" height="61.29"/><path class="cls-9" d="M211,254s-9.05,14-18.49,14h-9.45S166,265.73,164.6,254Z"/><rect class="cls-9" x="183.8" y="346.9" width="9.96" height="17.52"/><ellipse class="cls-9" cx="188.79" cy="371.44" rx="9.96" ry="10.02"/><ellipse class="cls-19" cx="188.79" cy="371.44" rx="4.4" ry="4.43"/><rect class="cls-9" x="227.61" y="352.42" width="9.96" height="11.99"/><ellipse class="cls-9" cx="232.59" cy="371.44" rx="9.96" ry="10.02"/><ellipse class="cls-19" cx="232.59" cy="371.44" rx="4.4" ry="4.43"/><rect class="cls-9" x="139.12" y="353.6" width="9.96" height="11.99"/><ellipse class="cls-9" cx="144.11" cy="371.44" rx="9.96" ry="10.02"/><ellipse class="cls-19" cx="144.11" cy="371.44" rx="4.4" ry="4.43"/><path class="cls-9" d="M196.55,323.64H181c-6.33,0-6.08,6-6.08,6v13h27.69v-13S202.88,323.64,196.55,323.64Z"/><path class="cls-18" d="M211,254s-9.05,14-18.49,14h-9.45S166,265.73,164.6,254Z"/><path class="cls-18" d="M196.55,323.64H181c-6.33,0-6.08,6-6.08,6v13h27.69v-13S202.88,323.64,196.55,323.64Z"/><rect class="cls-20" x="372.01" y="175.41" width="98.99" height="16.02"/><rect class="cls-21" x="372.01" y="175.41" width="98.99" height="16.02"/><rect class="cls-5" x="54.81" y="175.41" width="317.2" height="16.02"/><rect class="cls-18" x="54.81" y="175.41" width="317.2" height="16.02"/><path class="cls-11" d="M186.79,60.28s1.43,12.31-2.08,21.09l-3.52,8.78,25.14,8.91s-2-5.11-.79-17.16,6-19,6-19Z"/><path class="cls-22" d="M210.76,64.23c-.29-.48-.59-1-.89-1.44L193.41,61a34.22,34.22,0,0,0,2.86,14.89,68.53,68.53,0,0,0,8.88,14.51l0,0a72.27,72.27,0,0,1,.36-8.55A45.58,45.58,0,0,1,210.76,64.23Z"/><path class="cls-23" d="M229,45.89s.88,7.89,1.57,11.24.69,4.64-2.45,5.23a28.78,28.78,0,0,1-4.71.59Z"/><path class="cls-11" d="M192.1,57.51S199.85,68,204.25,71.72s11.7,6.76,14,4.54,4.86-2.91,10.07-22,1.39-29.47,1.39-29.47-13.43-9.55-27.2-5.82S182.37,41.79,192.1,57.51Z"/><path class="cls-19" d="M186.19,20.54A18.47,18.47,0,0,0,174.05,29c-4.87,7.52-4.71,12.76-.81,16.68s4.07,4.58,2.44,9,2.11,6,4.06,7,2.77,2.13,1.63,5.24,2.28,7.36,10.08,4.41S202,65.44,202,65.44V58.73s-11.87-4.9-6.34-11.61S205.6,51,205.6,51s2.27-6,5.36-6.71,3.58-9.16,3.58-9.16,7.64,5.07,15.94,5.24S248,34.85,248,27.32s-5-6.66-8.59-5.35-5.31.62-5-4.54c.32-4.93-3.28-7.47-8.06-5.72-3.48,1.27-4.65-1.45-5.54-4-.82-2.34-5.81-5.6-11.68-1.84s-6.39.1-10.89-.43C191.14,4.63,183.39,10,186.19,20.54Z"/><path class="cls-24" d="M191.28,21.48a8.51,8.51,0,0,1,1.85-6.76A7.79,7.79,0,0,1,199.5,12c1.37.1,2.69.58,4,.81a5.1,5.1,0,0,0,4-.64,11.39,11.39,0,0,0,1.94-2.45,6.45,6.45,0,0,1,4.14-2.58A4.8,4.8,0,0,1,218,8.83"/><path class="cls-24" d="M196.89,24.18a7.34,7.34,0,0,1,2.46-4.81,7.27,7.27,0,0,1,5.09-1.74c1.1.06,2.17.38,3.27.51a4.61,4.61,0,0,0,3.18-.57A9.82,9.82,0,0,0,213,14.88a6.29,6.29,0,0,1,3.41-2.48,4.63,4.63,0,0,1,4.06.78"/><path class="cls-24" d="M203.26,27.61a3.48,3.48,0,0,1,1.27-2.86,7.81,7.81,0,0,1,2.87-1.46,7.15,7.15,0,0,1,3.62-.41,11.59,11.59,0,0,1,3.09,1.49,4.6,4.6,0,0,0,3.29.74,4.41,4.41,0,0,0,2.25-1.69c1-1.27,1.73-2.73,2.67-4.05a7,7,0,0,1,3.73-2.91,3.46,3.46,0,0,1,4.07,1.74"/><path class="cls-24" d="M241.82,25.29a5.32,5.32,0,0,0-3.33.22,6.49,6.49,0,0,0-1.35,1.11,12.21,12.21,0,0,1-2.65,1.87c-1.14.58-2.58,1-3.63.24-.58-.41-.93-1.09-1.48-1.55a5,5,0,0,0-2.16-.88,4.22,4.22,0,0,0-1.86-.15c-1.22.26-1.94,1.47-2.74,2.43-1,1.22-2.57,2.23-4.09,1.8a10.45,10.45,0,0,1-1.48-.69,5.77,5.77,0,0,0-4.3-.24c-1.1.37-2.18,1.31-2.08,2.46"/><path class="cls-24" d="M207,31.24A11.19,11.19,0,0,1,201.56,36c-2.23,1-4.63,1.63-6.91,2.55a13,13,0,0,0-5.94,4.19c-1.91,2.67-2.11,6.25-1.54,9.49"/><path class="cls-24" d="M201.2,28.63a6,6,0,0,1-1,.84c-2,1.24-4.44,1.28-6.69,1.89a13.55,13.55,0,0,0-6.81,4.33c-3.1,3.68-4,8.75-4,13.56"/><path class="cls-24" d="M195.06,25.37c-3.54,2.77-8.83,2.2-12.42,4.89a11,11,0,0,0-3.81,6.28,30.57,30.57,0,0,0-.58,7.47"/><path class="cls-24" d="M188.35,23.25c-2,1.15-4.37,1.66-6.43,2.78a12.84,12.84,0,0,0-6.51,12"/><path class="cls-11" d="M318.13,144.88l-3.79-1.79a46.14,46.14,0,0,0-9.8-4.19,8,8,0,0,1,2.62.07,49.28,49.28,0,0,1,4.71,2.14c2.07.88,2-.67,2-.67s-4.88-3.89-6.6-3.89c-1.48,0-6.94.83-8.38,1.06q-.42-.08-.84-.12l2.07-1.46a1.31,1.31,0,0,0,0-2.17c-1.07,1-3.21,1.15-5.22,1.76a22,22,0,0,0-4.71,2.46h0l-.35.15h0c-3.8,1.67-10.94,5.17-10.94,5.17l6.49,10.28s3.18-5.42,7.05-5.56A94.43,94.43,0,0,0,303.54,147a15.55,15.55,0,0,1,6.91.49c2.06.52,1.5-1.56,1.5-1.56.34.14,2.35,1.26,2.56,1.38,2.15,1.25,2.19-.77,2.19-.77L315,145.41a5.45,5.45,0,0,0,2.39.83C318.4,146.22,318.13,144.88,318.13,144.88Z"/><path class="cls-14" d="M312,146.23a.17.17,0,0,1-.1,0,21.09,21.09,0,0,0-4.29-1.68,51,51,0,0,0-5.45-.94.24.24,0,0,1-.2-.25.22.22,0,0,1,.26-.2,49,49,0,0,1,5.5,1,21.2,21.2,0,0,1,4.38,1.72.23.23,0,0,1,.1.31A.24.24,0,0,1,312,146.23Z"/><path class="cls-14" d="M315,145.63a.22.22,0,0,1-.13,0,22.79,22.79,0,0,0-6.48-3l-.66-.17a43.08,43.08,0,0,0-5.23-1.15.23.23,0,0,1-.19-.26.22.22,0,0,1,.25-.19,45.47,45.47,0,0,1,5.28,1.16l.66.17a23.6,23.6,0,0,1,6.63,3,.22.22,0,0,1,0,.32A.21.21,0,0,1,315,145.63Z"/><path class="cls-25" d="M209.24,205.18s0-8.48,1-21.24c.94-11.83,0-16.44,8.68-32.29S214.35,91.23,192,94.22s-30.82,6.51-36.3,25.19-9.59,65.32-6.4,81.4,5,19.53,5,19.53S175.78,228.23,209.24,205.18Z"/><path class="cls-18" d="M191.38,193.31l-.41-.67c.09,0,8.19-5,9.85-12.68,3-13.72,7.38-18,7.57-18.16l.53.57s-4.42,4.32-7.34,17.76C199.85,188.1,191.72,193.1,191.38,193.31Z"/><path class="cls-18" d="M191,112.35c-6.06,40.31-1.78,70.22,12.22,87a20.05,20.05,0,0,0,6.1,4.91c0-2.53.17-10,1-20.29.94-11.84,0-16.45,8.67-32.3C226.2,138.43,192,105.69,191,112.35Z"/><path class="cls-25" d="M196.36,101.66s-12.38,4-6.67,22,39.28,47.1,46.58,54,18,10.57,31.27-1.84,17.83-17,17.83-17,3-3.44,1.6-9.65-3.43-8.73-3.43-8.73l-33.79,15.39S221.2,117,219.83,113.51,210.34,95.1,196.36,101.66Z"/><path class="cls-18" d="M189.49,125.39c-5.76-18.08,6.8-22.41,6.92-22.45l.25.74c-.49.16-11.94,4.15-6.43,21.47Z"/><polygon class="cls-18" points="252.36 161.28 249.41 155.98 250.09 155.59 253.04 160.9 252.36 161.28"/><path class="cls-25" d="M156.41,97a93,93,0,0,1,15.47-10.29c8-4,14.37-2.78,20.86-1.67s11.88,3.08,14,5.43A9.41,9.41,0,0,1,209,95s4.7,1.53,2.22,9.45a22.63,22.63,0,0,0-7.74-4.17c-4.84-1.53-10.23-3.33-18,2.5S166.35,124.21,155.44,118,156.41,97,156.41,97Z"/><path class="cls-18" d="M156.41,97a93,93,0,0,1,15.47-10.29c8-4,14.37-2.78,20.86-1.67s11.88,3.08,14,5.43A9.41,9.41,0,0,1,209,95s4.7,1.53,2.22,9.45a22.63,22.63,0,0,0-7.74-4.17c-4.84-1.53-10.23-3.33-18,2.5S166.35,124.21,155.44,118,156.41,97,156.41,97Z"/><path class="cls-18" d="M209,95S190.62,86.85,182.66,93s-15.7,18.65-27.08,18.78-12.29-.78-12.29-.78,15.86,2.7,25.61-7.65S185.74,81.67,209,95Z"/><path class="cls-11" d="M276.72,352.84s.68,8.29-1.27,14.18,0,13.45,0,13.45H324s-3.47-10.89-13-12-22.31-.87-24.49-12.83c-2.08-11.41-2.39-11.35-2.39-11.35l-8.24,2Z"/><path class="cls-12" d="M311,368.43c-6.9-.77-15.39-1.2-20.46-5.68a39.73,39.73,0,0,1-6.65,3.63,21.61,21.61,0,0,1-9.05,2c-1.24,5.6.39,12,.39,12H324S320.54,369.5,311,368.43Z"/><path class="cls-8" d="M311.15,368.43l-.21,0a13.23,13.23,0,0,0-5,10.15,13.54,13.54,0,0,0,.15,1.82h18S320.69,369.5,311.15,368.43Z"/><path class="cls-5" d="M275.29,381.46h49.42a16.38,16.38,0,0,0-2-4.39H274.58A33.12,33.12,0,0,0,275.29,381.46Z"/><g class="cls-26"><path class="cls-16" d="M293.49,364.52c-2.66.86-5.6,3-5.57,6.14a.49.49,0,0,0,1,0c0-2.67,2.62-4.47,4.86-5.19C294.35,365.28,294.09,364.33,293.49,364.52Z"/><path class="cls-16" d="M296.45,365.28c-2.66.86-5.6,3-5.57,6.14a.49.49,0,0,0,1,0c0-2.68,2.62-4.47,4.85-5.19C297.31,366,297.05,365.09,296.45,365.28Z"/><path class="cls-16" d="M299.83,365.9c-2.66.85-5.59,3-5.57,6.14a.49.49,0,0,0,1,0c0-2.68,2.62-4.48,4.85-5.2C300.69,366.65,300.44,365.7,299.83,365.9Z"/></g><path class="cls-17" d="M155,217.35s3.37,24.14,26.5,24.14,85.49-2,89.14-2,4.93-1.5,1.28,5.16-12.33,24.81-8.45,54.45a484.74,484.74,0,0,0,10.68,55.13s8.27,3.45,14.44,0c0,0,8-89.59,9.13-102.69s4.34-31.47-16-35.84-77.86-11.94-77.86-11.94Z"/><path class="cls-27" d="M263.67,212.47c-13.84-2.26-30.67-4.67-43-6.38"/><path class="cls-16" d="M190.24,228a12.74,12.74,0,0,1-2.12-.15l.13-.77A16.54,16.54,0,0,0,201.2,223c6.35-5.83,4.55-15.27,4.53-15.36l.76-.16c0,.1,1.91,10-4.76,16.11A16.91,16.91,0,0,1,190.24,228Z"/><path class="cls-16" d="M208.82,206.37c-.07-.72-.14-1.14-.14-1.15l.58-.09s.07.43.14,1.19Z"/><path class="cls-16" d="M194.23,230.13l0-.58a15.53,15.53,0,0,0,2.13-.36l.14.57A13.9,13.9,0,0,1,194.23,230.13Zm4.36-1.07-.22-.55a14.51,14.51,0,0,0,1.93-1l.3.51A14,14,0,0,1,198.59,229.06Zm3.86-2.3-.37-.46a17,17,0,0,0,1.6-1.48l.42.41A18.13,18.13,0,0,1,202.45,226.76Zm3.09-3.26-.47-.35a15.5,15.5,0,0,0,1.16-1.84l.51.28A17.59,17.59,0,0,1,205.54,223.5Zm2.17-3.94-.55-.22a21.92,21.92,0,0,0,.72-2.07l.56.16A22.19,22.19,0,0,1,207.71,219.56Zm1.26-4.31-.57-.12c.14-.7.25-1.43.34-2.17l.58.07C209.23,213.79,209.12,214.53,209,215.25Zm.53-4.45-.58,0c0-.52,0-1,0-1.49,0-.24,0-.48,0-.71l.59,0c0,.24,0,.48,0,.73C209.54,209.76,209.53,210.26,209.5,210.8Z"/><path class="cls-16" d="M192,230.17a11.53,11.53,0,0,1-1.2-.14l.12-.58a8.41,8.41,0,0,0,1.12.13Z"/><path class="cls-18" d="M275.4,269.71c1.79-9.08,4.44-18.18,3.56-27.39-.33-3.43-4.34-3.32-5.4-2.92.39.07.78.08.28,1.6-.36.74-.74,1.44-1.4,2.64-3.65,6.66-13,25.13-9.09,54.76a508.44,508.44,0,0,0,10.78,55.87,22.38,22.38,0,0,0,9.33,1.43C275.65,328,269.82,297.9,275.4,269.71Z"/><path class="cls-6" d="M264.65,239.58,207.38,241a7.92,7.92,0,0,1-7.74-5.52c-13.44-42-42.93-134.56-45-144.51-2.54-11.94-14.24-11-16-10.78l-.47,0-36,2a8,8,0,0,0-7.33,9.59l30.78,148.28c1.22,8.61,6.68,9.61,6.68,9.61l26,7.51a8.09,8.09,0,0,0,2.19.3h30l73.25-3.36a7.88,7.88,0,0,0,3.29-.89A7.72,7.72,0,0,0,271.5,246a6.16,6.16,0,0,0-3.91-5.94A7.36,7.36,0,0,0,264.65,239.58Z"/><path class="cls-10" d="M138.76,80.25l-2.16.12,50.66,161.11,20.12-.44a7.92,7.92,0,0,1-7.74-5.52c-13.43-42-42.93-134.56-45-144.51-2-9.54-9.89-10.85-13.87-10.89A14.94,14.94,0,0,0,138.76,80.25Z"/><path class="cls-9" d="M239,351.08c-3.08-.58-38.68-10.54-38.68-10.54a41.46,41.46,0,0,0-11.56-2,41.48,41.48,0,0,0-11.57,2s-35.6,10-38.68,10.54-2.32,4.19-2.32,4.19H241.35S242.12,351.66,239,351.08Z"/><path class="cls-19" d="M366,175.41s2-10.79,18-10.79,19,10.79,19,10.79Z"/><path class="cls-28" d="M388.63,165c-11.83,1.81-13.46,10.46-13.46,10.46H403S400.61,166.76,388.63,165Z"/><path class="cls-14" d="M428.43,143a.2.2,0,0,1-.13,0,.21.21,0,0,1-.05-.31,13.66,13.66,0,0,0,3-7.62,15,15,0,0,0-2.33-7.79l-.33-.57a18.44,18.44,0,0,1-2.73-6.87,15.84,15.84,0,0,1,1.78-9.23.23.23,0,0,1,.4.22,15.21,15.21,0,0,0-1.73,9,17.88,17.88,0,0,0,2.67,6.7l.33.57a15.4,15.4,0,0,1,2.39,8,14.07,14.07,0,0,1-3.11,7.87A.21.21,0,0,1,428.43,143Z"/><path class="cls-14" d="M424,143a.22.22,0,0,1-.13,0,.22.22,0,0,1-.05-.31,13.59,13.59,0,0,0,3-7.62,14.83,14.83,0,0,0-2.33-7.79l-.32-.57a18.27,18.27,0,0,1-2.73-6.87,15.76,15.76,0,0,1,1.78-9.23.22.22,0,0,1,.3-.09.23.23,0,0,1,.09.31,15.37,15.37,0,0,0-1.73,9,18,18,0,0,0,2.68,6.71l.32.56a15.31,15.31,0,0,1,2.39,8,14.06,14.06,0,0,1-3.1,7.87A.25.25,0,0,1,424,143Z"/><path class="cls-14" d="M419.88,142.49a.24.24,0,0,1-.13-.05.22.22,0,0,1-.05-.31,13.59,13.59,0,0,0,3-7.62,14.83,14.83,0,0,0-2.33-7.79l-.32-.56a18.18,18.18,0,0,1-2.73-6.87,15.71,15.71,0,0,1,1.78-9.24.22.22,0,0,1,.3-.09.23.23,0,0,1,.09.31,15.29,15.29,0,0,0-1.73,9,17.94,17.94,0,0,0,2.68,6.71l.32.57a15.24,15.24,0,0,1,2.39,8,14,14,0,0,1-3.1,7.87A.26.26,0,0,1,419.88,142.49Z"/><polygon class="cls-25" points="409.7 143.33 439.24 143.33 435.35 175.41 414.06 175.41 409.7 143.33"/><path class="cls-25" d="M408.08,164a4.66,4.66,0,1,1,3.63-7.56l-.72-5.35a8.75,8.75,0,1,0-2.91,17,8.66,8.66,0,0,0,5-1.6l-.73-5.34A4.63,4.63,0,0,1,408.08,164Z"/><path class="cls-18" d="M431.25,167.43a21.56,21.56,0,0,1-20.19-14.09l3,22.07h21.29l1-8.6A21.79,21.79,0,0,1,431.25,167.43Z"/><path class="cls-29" d="M409.84,143.33h-.13l.08.6C409.8,143.73,409.82,143.53,409.84,143.33Z"/><path class="cls-29" d="M408.08,152.73a4.65,4.65,0,0,0-4.52,5.65,4.62,4.62,0,0,1,8.15-1.91l-.32-2.34A4.61,4.61,0,0,0,408.08,152.73Z"/><path class="cls-29" d="M408.08,166.15a8.72,8.72,0,0,1-8.64-7.77,8,8,0,0,0-.06,1,8.68,8.68,0,0,0,13.7,7.16l-.25-1.81A8.6,8.6,0,0,1,408.08,166.15Z"/><ellipse class="cls-3" cx="127.85" cy="291.93" rx="17.15" ry="17.07"/><path class="cls-3" d="M346.56,349.89c8.33,7.54,18.88,11.11,29.78,13.06a152.67,152.67,0,0,0,39.24,1.83c3.19-.25,3.21-5.25,0-5a149,149,0,0,1-36.17-1.35c-10.58-1.75-21.19-4.73-29.31-12.07-2.38-2.16-5.93,1.37-3.54,3.53Z"/><path class="cls-3" d="M429.13,355.17l.72-1.43a2.5,2.5,0,0,0-4.32-2.53l-.72,1.44a2.5,2.5,0,1,0,4.32,2.52Z"/><path class="cls-3" d="M437,344.24c3.22,0,3.22-5,0-5s-3.22,5,0,5Z"/><path class="cls-3" d="M452.53,149.21a151.43,151.43,0,0,0,6.64,17c1.19,2.56,5.49.75,4.57-1.92a341.77,341.77,0,0,0-20.51-47.61c-1.49-2.85-5.81-.33-4.31,2.52a335,335,0,0,1,20,46.41l4.57-1.92a141.13,141.13,0,0,1-6.14-15.78c-1-3-5.81-1.75-4.82,1.33Z"/><path class="cls-3" d="M438.42,106.71c3.22,0,3.22-5,0-5s-3.22,5,0,5Z"/><path class="cls-3" d="M258.84,26.58h-.45c-3.21,0-3.22,5,0,5h.45c3.21,0,3.22-5,0-5h-.45c-3.21,0-3.22,5,0,5h.45c3.21,0,3.22-5,0-5Z"/><path class="cls-3" d="M271,28c3.22,0,3.22-5,0-5s-3.22,5,0,5Z"/><path class="cls-3" d="M282.45,25.86c3.21,0,3.22-5,0-5s-3.23,5,0,5Z"/><path class="cls-3" d="M86.49,120.05a327.36,327.36,0,0,0-40.76,54.51c-1.65,2.77,2.67,5.29,4.32,2.53a320.63,320.63,0,0,1,40-53.5c2.18-2.36-1.35-5.9-3.54-3.54Z"/><path class="cls-3" d="M37,201.86c3.22,0,3.22-5,0-5s-3.22,5,0,5Z"/><path class="cls-3" d="M43.48,188.27c3.22,0,3.22-5,0-5s-3.22,5,0,5Z"/></g></g></svg>